<svg width="130" height="38" viewBox="0 0 130 38" fill="none" xmlns="http://www.w3.org/2000/svg">
<g style="mix-blend-mode:multiply">
<path d="M129.259 33.2195C129.259 35.2206 127.604 36.8415 125.557 36.8415H4.42837C2.38267 36.8415 0.722168 35.2206 0.722168 33.2195V4.33522C0.722168 2.33509 2.38267 0.708496 4.42837 0.708496H125.556C127.604 0.708496 129.258 2.33509 129.258 4.33522L129.259 33.2195Z" fill="#212235"/>
<path d="M125.167 0.752266C127.395 0.752266 129.209 2.52064 129.209 4.69384V32.8563C129.209 35.0295 127.395 36.7979 125.167 36.7979H4.8141C2.58517 36.7979 0.771459 35.0295 0.771459 32.8563V4.69384C0.771459 2.52064 2.58517 0.752266 4.8141 0.752266H125.167ZM125.167 9.62827e-05H4.8141C2.16755 9.62827e-05 0 2.11345 0 4.69384V32.8563C0 35.4367 2.16755 37.55 4.8141 37.55H125.167C127.813 37.55 129.981 35.4367 129.981 32.8563V4.69384C129.981 2.11345 127.813 9.62827e-05 125.167 9.62827e-05Z" fill="#212238"/>
<path d="M29.0079 18.5722C28.98 15.5466 31.5488 14.0746 31.6663 14.0061C30.2115 11.938 27.9565 11.6555 27.1641 11.633C25.2703 11.4386 23.4332 12.7379 22.4685 12.7379C21.4845 12.7379 19.9988 11.6517 18.3977 11.6836C16.3372 11.7146 14.4097 12.8777 13.3525 14.6839C11.1707 18.3666 12.7979 23.7785 14.8882 26.7553C15.9338 28.2131 17.1556 29.8409 18.7549 29.7837C20.3195 29.7208 20.9039 28.8111 22.792 28.8111C24.6627 28.8111 25.2115 29.7837 26.8426 29.7471C28.5217 29.7208 29.5789 28.2826 30.5879 26.8116C31.7963 25.1406 32.2815 23.495 32.3008 23.4105C32.2613 23.3974 29.0397 22.1986 29.0079 18.5722Z" fill="white"/>
<path d="M25.9269 9.67473C26.7684 8.64867 27.3442 7.25275 27.1844 5.83618C25.9664 5.88875 24.4432 6.65759 23.5661 7.66111C22.79 8.54541 22.0968 9.99484 22.2759 11.3579C23.6441 11.4574 25.0488 10.6848 25.9269 9.67473Z" fill="white"/>
<path d="M51.6503 29.5742H49.4637L48.266 25.9046H44.1027L42.9618 29.5742H40.833L44.9577 17.0813H47.5053L51.6503 29.5742ZM47.9049 24.3651L46.8217 21.1029C46.7072 20.7696 46.4925 19.9848 46.1757 18.7495H46.1372C46.011 19.2808 45.8079 20.0656 45.5287 21.1029L44.4648 24.3651H47.9049Z" fill="white"/>
<path d="M62.2578 24.9594C62.2578 26.4914 61.8332 27.7024 60.984 28.5914C60.2233 29.3828 59.2788 29.778 58.1513 29.778C56.9343 29.778 56.0601 29.3518 55.5277 28.4994H55.4891V33.2448H53.4364V23.5315C53.4364 22.5684 53.4104 21.5799 53.3604 20.566H55.1656L55.2802 21.9939H55.3187C56.0033 20.9181 57.0422 20.3811 58.4363 20.3811C59.5262 20.3811 60.4361 20.8007 61.164 21.6409C61.8938 22.482 62.2578 23.5879 62.2578 24.9594ZM60.1665 25.0326C60.1665 24.1558 59.9643 23.433 59.558 22.8641C59.1142 22.2708 58.5182 21.9742 57.771 21.9742C57.2646 21.9742 56.8044 22.1394 56.3932 22.4651C55.9811 22.7937 55.7116 23.2227 55.5854 23.754C55.5219 24.0019 55.4901 24.2046 55.4901 24.3642V25.8662C55.4901 26.5215 55.6962 27.0744 56.1082 27.5259C56.5203 27.9775 57.0557 28.2028 57.7142 28.2028C58.4874 28.2028 59.0891 27.9117 59.5195 27.3316C59.9508 26.7505 60.1665 25.9845 60.1665 25.0326Z" fill="white"/>
<path d="M72.8842 24.9594C72.8842 26.4914 72.4596 27.7024 71.6095 28.5914C70.8498 29.3828 69.9053 29.778 68.7778 29.778C67.5608 29.778 66.6866 29.3518 66.1551 28.4994H66.1166V33.2448H64.0639V23.5315C64.0639 22.5684 64.0379 21.5799 63.9878 20.566H65.7931L65.9077 21.9939H65.9462C66.6298 20.9181 67.6687 20.3811 69.0638 20.3811C70.1527 20.3811 71.0626 20.8007 71.7924 21.6409C72.5193 22.482 72.8842 23.5879 72.8842 24.9594ZM70.793 25.0326C70.793 24.1558 70.5898 23.433 70.1835 22.8641C69.7397 22.2708 69.1456 21.9742 68.3975 21.9742C67.8901 21.9742 67.4308 22.1394 67.0188 22.4651C66.6067 22.7937 66.338 23.2227 66.2119 23.754C66.1493 24.0019 66.1166 24.2046 66.1166 24.3642V25.8662C66.1166 26.5215 66.3226 27.0744 66.7328 27.5259C67.1449 27.9765 67.6802 28.2028 68.3407 28.2028C69.1138 28.2028 69.7156 27.9117 70.146 27.3316C70.5773 26.7505 70.793 25.9845 70.793 25.0326Z" fill="white"/>
<path d="M84.7654 26.071C84.7654 27.1336 84.3871 27.9982 83.6274 28.6657C82.7926 29.3951 81.6305 29.7593 80.1372 29.7593C78.7584 29.7593 77.6531 29.5002 76.8164 28.9811L77.292 27.3129C78.1932 27.8442 79.1821 28.1109 80.2595 28.1109C81.0326 28.1109 81.6344 27.94 82.0667 27.6002C82.497 27.2603 82.7117 26.8041 82.7117 26.2352C82.7117 25.7283 82.5346 25.3012 82.1793 24.9548C81.826 24.6084 81.2357 24.2864 80.4116 23.9888C78.1682 23.173 77.0475 21.978 77.0475 20.4065C77.0475 19.3796 77.4403 18.5375 78.2269 17.8822C79.0107 17.2261 80.0563 16.8984 81.3638 16.8984C82.5298 16.8984 83.4984 17.0965 84.2715 17.4917L83.7583 19.1233C83.0362 18.7403 82.2197 18.5488 81.306 18.5488C80.5839 18.5488 80.0197 18.7224 79.6153 19.0679C79.2735 19.3767 79.1021 19.7532 79.1021 20.1991C79.1021 20.6929 79.2976 21.1012 79.6904 21.4223C80.0322 21.7189 80.6532 22.04 81.5544 22.3864C82.6569 22.8191 83.4666 23.3251 83.9875 23.9053C84.5064 24.4835 84.7654 25.2073 84.7654 26.071Z" fill="white"/>
<path d="M91.5525 22.0681H89.2899V26.4417C89.2899 27.5541 89.6885 28.1099 90.4876 28.1099C90.8545 28.1099 91.1587 28.0789 91.3994 28.0169L91.4562 29.5368C91.0518 29.6842 90.5194 29.7583 89.8599 29.7583C89.0492 29.7583 88.4156 29.5171 87.9583 29.0355C87.5029 28.553 87.2737 27.7438 87.2737 26.6069V22.0662H85.9258V20.5642H87.2737V18.9148L89.2899 18.3215V20.5642H91.5525V22.0681Z" fill="white"/>
<path d="M101.761 24.9958C101.761 26.3804 101.355 27.5173 100.544 28.4063C99.6943 29.3215 98.5659 29.7778 97.1592 29.7778C95.8035 29.7778 94.7242 29.3394 93.9193 28.4626C93.1144 27.5858 92.7119 26.479 92.7119 25.145C92.7119 23.7491 93.1259 22.6057 93.9568 21.7167C94.7858 20.8268 95.9046 20.3818 97.3113 20.3818C98.6669 20.3818 99.7578 20.8202 100.581 21.698C101.369 22.5494 101.761 23.6487 101.761 24.9958ZM99.6317 25.0606C99.6317 24.2298 99.4497 23.5173 99.081 22.923C98.6506 22.2039 98.0353 21.8453 97.2381 21.8453C96.413 21.8453 95.7862 22.2049 95.3558 22.923C94.9871 23.5182 94.8051 24.242 94.8051 25.0981C94.8051 25.9289 94.9871 26.6414 95.3558 27.2347C95.7997 27.9538 96.4197 28.3124 97.2198 28.3124C98.0036 28.3124 98.6188 27.9463 99.0627 27.2159C99.4411 26.6104 99.6317 25.8904 99.6317 25.0606Z" fill="white"/>
<path d="M108.433 22.3262C108.23 22.2896 108.014 22.2708 107.786 22.2708C107.064 22.2708 106.506 22.5365 106.113 23.0687C105.771 23.5381 105.6 24.1314 105.6 24.8477V29.5743H103.548L103.567 23.4029C103.567 22.3647 103.541 21.4194 103.49 20.567H105.278L105.353 22.2905H105.41C105.627 21.6982 105.969 21.2213 106.436 20.8636C106.894 20.5416 107.388 20.3811 107.92 20.3811C108.11 20.3811 108.281 20.3942 108.433 20.4177V22.3262Z" fill="white"/>
<path d="M117.614 24.644C117.614 25.0026 117.59 25.3049 117.539 25.5518H111.38C111.405 26.4417 111.702 27.1223 112.274 27.5917C112.793 28.0113 113.464 28.2216 114.288 28.2216C115.2 28.2216 116.032 28.0798 116.78 27.7954L117.102 29.1847C116.227 29.5565 115.195 29.7414 114.004 29.7414C112.571 29.7414 111.447 29.3302 110.629 28.5088C109.812 27.6874 109.403 26.5844 109.403 25.2007C109.403 23.8423 109.783 22.7111 110.545 21.809C111.342 20.8458 112.419 20.3643 113.775 20.3643C115.107 20.3643 116.115 20.8458 116.799 21.809C117.341 22.5741 117.614 23.5203 117.614 24.644ZM115.656 24.1249C115.67 23.5316 115.536 23.019 115.258 22.5863C114.902 22.0296 114.357 21.7517 113.622 21.7517C112.951 21.7517 112.405 22.023 111.988 22.5675C111.646 23.0003 111.443 23.5194 111.38 24.1239H115.656V24.1249Z" fill="white"/>
<path d="M46.1916 9.4142C46.2252 9.42642 46.2695 9.44323 46.3245 9.46462C46.3795 9.48907 46.4773 9.54407 46.6179 9.62964C46.7585 9.71214 46.8822 9.8084 46.9892 9.91841C47.0961 10.0284 47.1924 10.1827 47.2779 10.3814C47.3666 10.5769 47.4109 10.7863 47.4109 11.0093C47.4109 11.5533 47.1802 12.0178 46.7187 12.4028C46.2604 12.7878 45.6461 12.9803 44.8761 12.9803C44.5644 12.9803 44.2634 12.9437 43.9731 12.8703C43.6828 12.7939 43.4429 12.7053 43.2534 12.6045C43.067 12.5006 42.9005 12.3952 42.7538 12.2882C42.6102 12.1812 42.5047 12.0911 42.4375 12.0178L42.3413 11.9032L43.0013 11.2477C43.0197 11.266 43.0472 11.2935 43.0838 11.3302C43.1235 11.3669 43.203 11.431 43.3222 11.5227C43.4444 11.6144 43.5728 11.6969 43.7072 11.7702C43.8417 11.8405 44.0159 11.9047 44.2298 11.9628C44.4437 12.0178 44.6591 12.0453 44.8761 12.0453C45.3467 12.0453 45.7149 11.9398 45.9807 11.729C46.2466 11.5181 46.3795 11.263 46.3795 10.9635C46.3795 10.664 46.2466 10.4104 45.9807 10.2026C45.7149 9.99175 45.3467 9.88633 44.8761 9.88633H44.0785V8.94666H44.8761C45.258 8.94666 45.5575 8.85957 45.7745 8.68539C45.9914 8.50815 46.0999 8.29424 46.0999 8.04366C46.0999 7.7992 45.9914 7.5914 45.7745 7.42028C45.5575 7.24915 45.258 7.16359 44.8761 7.16359C44.601 7.16359 44.3306 7.22318 44.0647 7.34235C43.7989 7.46153 43.6003 7.57612 43.4689 7.68613L43.2809 7.8649L42.6255 7.20942C42.6438 7.18498 42.6743 7.15136 42.7171 7.10858C42.763 7.06274 42.8577 6.98177 43.0013 6.86564C43.1449 6.74952 43.2962 6.65021 43.4551 6.5677C43.614 6.48214 43.8233 6.40421 44.0831 6.33393C44.3428 6.26059 44.6072 6.22392 44.8761 6.22392C45.5758 6.22392 46.1259 6.39046 46.5262 6.72355C46.9296 7.05358 47.1313 7.46611 47.1313 7.96116C47.1313 8.16284 47.0976 8.35077 47.0304 8.52496C46.9662 8.69914 46.8883 8.83818 46.7966 8.94208C46.708 9.04597 46.6179 9.13612 46.5262 9.21252C46.4345 9.28586 46.3551 9.33781 46.2879 9.36836L46.1916 9.4142ZM52.3886 12.8887H51.449V12.4211C51.4367 12.4334 51.4153 12.4532 51.3848 12.4807C51.3573 12.5082 51.2992 12.5541 51.2106 12.6182C51.125 12.6793 51.0318 12.7359 50.931 12.7878C50.8302 12.8367 50.7033 12.881 50.5505 12.9208C50.3978 12.9605 50.2434 12.9803 50.0876 12.9803C49.6292 12.9803 49.2488 12.8474 48.9462 12.5816C48.6437 12.3157 48.4924 12.0117 48.4924 11.6694C48.4924 11.2996 48.6086 10.9895 48.8408 10.7389C49.0761 10.4883 49.397 10.3294 49.8034 10.2622L51.449 9.978C51.449 9.73965 51.3603 9.53949 51.1831 9.37753C51.0089 9.21557 50.7843 9.13459 50.5093 9.13459C50.2709 9.13459 50.054 9.18501 49.8584 9.28586C49.6659 9.38364 49.533 9.48296 49.4596 9.5838L49.3359 9.74423L48.7262 9.13459C48.7446 9.11015 48.769 9.07959 48.7996 9.04292C48.8332 9.00319 48.905 8.93596 49.015 8.84123C49.1281 8.74345 49.2472 8.65636 49.3725 8.57996C49.4978 8.50357 49.6628 8.43634 49.8676 8.37828C50.0754 8.31716 50.2893 8.2866 50.5093 8.2866C51.0593 8.2866 51.5101 8.45009 51.8615 8.77706C52.2129 9.10098 52.3886 9.50129 52.3886 9.978V12.8887ZM50.2297 12.1369C50.6117 12.1369 50.9096 12.0239 51.1235 11.7977C51.3405 11.5686 51.449 11.2431 51.449 10.8214V10.7297L49.9913 10.9635C49.8233 10.9941 49.6873 11.0628 49.5834 11.1698C49.4795 11.2767 49.4275 11.4112 49.4275 11.5731C49.4275 11.7229 49.4993 11.8543 49.643 11.9673C49.7896 12.0804 49.9852 12.1369 50.2297 12.1369ZM57.0363 8.38286V9.22627H54.8316V12.8887H53.8919V8.38286H57.0363ZM60.3685 12.9803C60.2005 12.9803 60.037 12.9605 59.8781 12.9208C59.7192 12.881 59.5832 12.8321 59.4701 12.7741C59.3571 12.713 59.2562 12.6518 59.1676 12.5907C59.082 12.5266 59.0194 12.4761 58.9797 12.4395L58.9155 12.3707V14.8597H57.9758V8.38286H58.9155V8.90082C58.9583 8.85804 59.0179 8.80151 59.0943 8.73122C59.1737 8.66094 59.3403 8.56927 59.5939 8.4562C59.8475 8.34313 60.1057 8.2866 60.3685 8.2866C60.9644 8.2866 61.4809 8.51579 61.9178 8.97416C62.3579 9.42948 62.5779 9.98258 62.5779 10.6335C62.5779 11.2844 62.3579 11.839 61.9178 12.2974C61.4809 12.7527 60.9644 12.9803 60.3685 12.9803ZM61.2257 9.57463C60.9507 9.28127 60.6344 9.13459 60.2769 9.13459C59.9193 9.13459 59.6031 9.28127 59.328 9.57463C59.053 9.86799 58.9155 10.2225 58.9155 10.6381C58.9155 11.0506 59.053 11.4035 59.328 11.6969C59.6031 11.9903 59.9193 12.1369 60.2769 12.1369C60.6344 12.1369 60.9507 11.9903 61.2257 11.6969C61.5007 11.4035 61.6382 11.0506 61.6382 10.6381C61.6382 10.2225 61.5007 9.86799 61.2257 9.57463ZM64.8742 13.3562L65.0621 12.8887L63.2286 8.38286H64.2141L65.5296 11.6694L66.8452 8.38286H67.8307L65.8092 13.3562C65.577 13.9124 65.3463 14.302 65.1171 14.5251C64.891 14.7481 64.6068 14.8597 64.2645 14.8597C64.1392 14.8597 64.0216 14.852 63.9116 14.8368C63.8016 14.8215 63.7206 14.8047 63.6686 14.7863L63.6045 14.768V13.92C63.7603 13.9811 63.9177 14.0132 64.0766 14.0163C64.4341 14.0132 64.7 13.7932 64.8742 13.3562ZM71.7679 9.5563C71.7679 9.76409 71.7099 9.94591 71.5937 10.1018C71.4807 10.2576 71.3646 10.36 71.2454 10.4089L71.0666 10.496C71.0911 10.5021 71.1231 10.5128 71.1629 10.528C71.2056 10.5433 71.2759 10.58 71.3737 10.6381C71.4746 10.6931 71.5632 10.7603 71.6396 10.8397C71.719 10.9161 71.7908 11.0231 71.855 11.1606C71.9222 11.2981 71.9559 11.4524 71.9559 11.6236C71.9559 11.9994 71.7878 12.3203 71.4516 12.5861C71.1186 12.8489 70.6617 12.9803 70.0811 12.9803C69.8611 12.9803 69.6487 12.9528 69.444 12.8978C69.2423 12.8428 69.0742 12.7771 68.9398 12.7007C68.8053 12.6243 68.6877 12.5479 68.5868 12.4716C68.486 12.3921 68.4111 12.3249 68.3622 12.2699L68.298 12.1828L68.9077 11.5731C68.9443 11.6159 68.9932 11.6694 69.0543 11.7336C69.1185 11.7977 69.253 11.8818 69.4577 11.9857C69.6655 12.0865 69.8733 12.1369 70.0811 12.1369C70.3928 12.1369 70.6266 12.0789 70.7824 11.9628C70.9413 11.8466 71.0208 11.7015 71.0208 11.5273C71.0208 11.3531 70.9413 11.208 70.7824 11.0918C70.6266 10.9757 70.3928 10.9177 70.0811 10.9177H69.5631V10.1659H70.0811C70.3256 10.1659 70.512 10.1186 70.6403 10.0238C70.7687 9.92605 70.8328 9.80229 70.8328 9.65255C70.8328 9.49976 70.7687 9.376 70.6403 9.28127C70.512 9.18349 70.3256 9.13459 70.0811 9.13459C69.9008 9.13459 69.7236 9.16973 69.5494 9.24002C69.3783 9.30725 69.2514 9.37753 69.1689 9.45087L69.0498 9.5563L68.4355 8.94666C68.4783 8.89777 68.541 8.83665 68.6235 8.76331C68.706 8.68997 68.8893 8.59218 69.1735 8.46995C69.4577 8.34772 69.7602 8.2866 70.0811 8.2866C70.6006 8.2866 71.0116 8.41189 71.3141 8.66247C71.6167 8.91305 71.7679 9.21099 71.7679 9.5563ZM76.4661 8.38286H77.3095V12.8887H76.3698V9.93216L74.0229 12.8887H73.1795V8.38286H74.1192V11.3394L76.4661 8.38286ZM78.3452 9.22627V8.38286H82.3789V9.22627H80.8296V12.8887H79.8945V9.22627H78.3452ZM87.5858 10.9635H84.0655C84.1144 11.2813 84.2703 11.5563 84.5331 11.7886C84.7989 12.0208 85.1137 12.1369 85.4773 12.1369C85.7401 12.1369 85.9846 12.0774 86.2107 11.9582C86.4399 11.839 86.6019 11.7229 86.6966 11.6098L86.8387 11.4356L87.4483 12.0453C87.43 12.0697 87.401 12.1049 87.3612 12.1507C87.3246 12.1935 87.2436 12.2683 87.1183 12.3753C86.993 12.4792 86.8601 12.5724 86.7195 12.6549C86.5789 12.7344 86.3956 12.8092 86.1695 12.8795C85.9464 12.9467 85.7157 12.9803 85.4773 12.9803C84.8387 12.9803 84.2871 12.7466 83.8226 12.279C83.3612 11.8084 83.1305 11.2446 83.1305 10.5876C83.1305 9.95508 83.3551 9.4142 83.8043 8.96499C84.2565 8.51273 84.7974 8.2866 85.4269 8.2866C86.0595 8.2866 86.5851 8.49745 87.0037 8.91916C87.4254 9.33781 87.6363 9.86341 87.6363 10.496L87.5858 10.9635ZM85.4269 9.08876C85.0877 9.08876 84.802 9.1896 84.5697 9.39128C84.3406 9.58991 84.1862 9.84813 84.1068 10.1659H86.7149C86.6599 9.84813 86.5178 9.58991 86.2886 9.39128C86.0595 9.1896 85.7722 9.08876 85.4269 9.08876ZM90.9178 8.38286H93.0768C93.5077 8.38286 93.8499 8.4944 94.1035 8.71747C94.3572 8.93749 94.484 9.2171 94.484 9.5563C94.484 9.74881 94.4412 9.92452 94.3557 10.0834C94.2731 10.2393 94.1876 10.3478 94.099 10.4089L93.9706 10.496C93.989 10.5021 94.0149 10.5128 94.0485 10.528C94.0822 10.5433 94.1433 10.5831 94.2319 10.6472C94.3205 10.7083 94.3969 10.7771 94.4611 10.8535C94.5283 10.9268 94.5879 11.0277 94.6398 11.156C94.6948 11.2844 94.7223 11.4234 94.7223 11.5731C94.7223 11.9612 94.5833 12.2775 94.3052 12.522C94.0302 12.7664 93.6528 12.8887 93.173 12.8887H90.9178V8.38286ZM93.173 10.8718H91.8575V12.0911H93.173C93.3595 12.0911 93.5077 12.0361 93.6177 11.9261C93.7277 11.8161 93.7827 11.6679 93.7827 11.4815C93.7827 11.3134 93.7262 11.1698 93.6131 11.0506C93.5 10.9314 93.3533 10.8718 93.173 10.8718ZM93.4206 9.99634C93.5061 9.91077 93.5489 9.79618 93.5489 9.65255C93.5489 9.50588 93.5061 9.39128 93.4206 9.30877C93.335 9.22321 93.2204 9.18043 93.0768 9.18043H91.8575V10.1201H93.0768C93.2204 10.1201 93.335 10.0788 93.4206 9.99634Z" fill="white"/>
</g>
</svg>
