<svg width="131" height="38" viewBox="0 0 131 38" fill="none" xmlns="http://www.w3.org/2000/svg">
<path d="M125.392 37.55H5.20543C2.56252 37.55 0.397949 35.4367 0.397949 32.8563V4.69385C0.397949 2.11346 2.56252 0.000103369 5.20543 0.000103369H125.392C128.035 0.000103369 130.2 2.11346 130.2 4.69385V32.8563C130.2 35.4367 128.035 37.55 125.392 37.55Z" fill="#212235"/>
<path d="M125.392 0.752273C127.618 0.752273 129.43 2.52064 129.43 4.69385V32.8563C129.43 35.0295 127.618 36.7979 125.392 36.7979H5.20543C2.97957 36.7979 1.16835 35.0295 1.16835 32.8563V4.69385C1.16835 2.52064 2.97957 0.752273 5.20543 0.752273H125.392ZM125.392 0.000103369H5.20543C2.56252 0.000103369 0.397949 2.11346 0.397949 4.69385V32.8563C0.397949 35.4367 2.56252 37.55 5.20543 37.55H125.392C128.035 37.55 130.2 35.4367 130.2 32.8563V4.69385C130.2 2.11346 128.035 0.000103369 125.392 0.000103369Z" fill="#212238"/>
<path d="M65.9096 20.4202C63.6513 20.4202 61.8065 22.0982 61.8065 24.4134C61.8065 26.7098 63.6513 28.4054 65.9096 28.4054C68.1728 28.4054 70.0176 26.7098 70.0176 24.4134C70.0176 22.0982 68.1728 20.4202 65.9096 20.4202ZM65.9096 26.833C64.6705 26.833 63.6044 25.8344 63.6044 24.4134C63.6044 22.9736 64.6705 21.9926 65.9096 21.9926C67.1488 21.9926 68.2196 22.9736 68.2196 24.4134C68.2196 25.8344 67.1488 26.833 65.9096 26.833ZM56.9569 20.4202C54.6938 20.4202 52.8537 22.0982 52.8537 24.4134C52.8537 26.7098 54.6938 28.4054 56.9569 28.4054C59.2188 28.4054 61.0601 26.7098 61.0601 24.4134C61.0601 22.0982 59.2188 20.4202 56.9569 20.4202ZM56.9569 26.833C55.7166 26.833 54.6469 25.8344 54.6469 24.4134C54.6469 22.9736 55.7166 21.9926 56.9569 21.9926C58.196 21.9926 59.2621 22.9736 59.2621 24.4134C59.2621 25.8344 58.196 26.833 56.9569 26.833ZM46.3035 21.6441V23.3408H50.4536C50.3322 24.289 50.0077 24.986 49.5101 25.4718C48.9044 26.0585 47.9609 26.7098 46.3035 26.7098C43.7496 26.7098 41.7496 24.6973 41.7496 22.2038C41.7496 19.7102 43.7496 17.6978 46.3035 17.6978C47.6845 17.6978 48.6892 18.2247 49.4308 18.9076L50.6555 17.7119C49.6183 16.745 48.2385 16.0022 46.3035 16.0022C42.8013 16.0022 39.8579 18.7844 39.8579 22.2038C39.8579 25.6232 42.8013 28.4054 46.3035 28.4054C48.1965 28.4054 49.6183 27.7999 50.736 26.664C51.8814 25.5457 52.2384 23.9733 52.2384 22.7037C52.2384 22.3094 52.2047 21.9468 52.1446 21.6441H46.3035ZM89.8665 22.9595C89.5288 22.0665 88.4867 20.4202 86.3643 20.4202C84.261 20.4202 82.5099 22.0383 82.5099 24.4134C82.5099 26.6499 84.243 28.4054 86.5662 28.4054C88.4447 28.4054 89.5288 27.2871 89.9747 26.6358L88.5805 25.7288C88.1154 26.3929 87.482 26.833 86.5662 26.833C85.6563 26.833 85.0037 26.4258 84.5855 25.6232L90.0552 23.4136L89.8665 22.9595ZM84.2898 24.289C84.243 22.7494 85.5145 21.9609 86.4255 21.9609C87.1395 21.9609 87.7452 22.3094 87.9471 22.8081L84.2898 24.289ZM79.8441 28.1625H81.6421V16.4281H79.8441V28.1625ZM76.8995 21.3096H76.8394C76.4356 20.8426 75.6652 20.4202 74.6893 20.4202C72.6413 20.4202 70.7688 22.1756 70.7688 24.4263C70.7688 26.664 72.6413 28.4054 74.6893 28.4054C75.6652 28.4054 76.4356 27.9794 76.8394 27.4983H76.8995V28.071C76.8995 29.5976 76.0642 30.4178 74.7169 30.4178C73.6184 30.4178 72.937 29.6434 72.6557 28.9921L71.0921 29.6293C71.5428 30.6877 72.7363 31.9902 74.7169 31.9902C76.825 31.9902 78.6038 30.7792 78.6038 27.8328V20.6631H76.8995V21.3096ZM74.8431 26.833C73.604 26.833 72.5668 25.8203 72.5668 24.4263C72.5668 23.0193 73.604 21.9926 74.8431 21.9926C76.0642 21.9926 77.0269 23.0193 77.0269 24.4263C77.0269 25.8203 76.0642 26.833 74.8431 26.833ZM98.2844 16.4281H93.9841V28.1625H95.7773V23.7163H98.2844C100.276 23.7163 102.229 22.3094 102.229 20.0716C102.229 17.8351 100.271 16.4281 98.2844 16.4281ZM98.3313 22.0841H95.7773V18.0604H98.3313C99.6701 18.0604 100.435 19.1458 100.435 20.0716C100.435 20.9799 99.6701 22.0841 98.3313 22.0841ZM109.416 20.3979C108.12 20.3979 106.773 20.9564 106.219 22.1944L107.81 22.8456C108.153 22.1944 108.783 21.9832 109.449 21.9832C110.379 21.9832 111.322 22.5288 111.337 23.4922V23.6154C111.012 23.4324 110.318 23.1613 109.463 23.1613C107.749 23.1613 106.003 24.0825 106.003 25.8015C106.003 27.3739 107.407 28.3866 108.985 28.3866C110.191 28.3866 110.857 27.855 111.275 27.2366H111.337V28.1437H113.069V23.6424C113.069 21.5619 111.477 20.3979 109.416 20.3979ZM109.2 26.8283C108.613 26.8283 107.796 26.5443 107.796 25.8344C107.796 24.9262 108.815 24.5776 109.697 24.5776C110.487 24.5776 110.857 24.7478 111.337 24.9719C111.196 26.0585 110.238 26.8283 109.2 26.8283ZM119.378 20.6548L117.317 25.7417H117.256L115.125 20.6548H113.191L116.393 27.7635L114.566 31.7192H116.44L121.374 20.6548H119.378ZM103.214 28.1625H105.012V16.4281H103.214V28.1625Z" fill="white"/>
<path d="M10.4312 7.07723C10.1488 7.3659 9.98535 7.81532 9.98535 8.39734V29.1578C9.98535 29.7398 10.1488 30.1892 10.4312 30.4779L10.501 30.5413L22.4163 18.9125V18.6379L10.501 7.00917L10.4312 7.07723Z" fill="#A5A5A5"/>
<path d="M26.3839 22.7905L22.4165 18.9123V18.6377L26.3887 14.7595L26.4776 14.81L31.1817 17.4232C32.5242 18.1648 32.5242 19.3852 31.1817 20.1315L26.4776 22.7401L26.3839 22.7905Z" fill="white"/>
<path d="M26.4773 22.7402L22.4162 18.7751L10.4312 30.4778C10.877 30.9354 11.6042 30.9906 12.4311 30.533L26.4773 22.7402Z" fill="#CFCFCF"/>
<path d="M26.4773 14.8099L12.4311 7.01708C11.6042 6.56413 10.877 6.61928 10.4312 7.07692L22.4162 18.7749L26.4773 14.8099Z" fill="#CFCFCF"/>
</svg>
