<svg width="296" height="25" viewBox="0 0 296 25" fill="none" xmlns="http://www.w3.org/2000/svg">
<g clip-path="url(#clip0)">
<path d="M14.9965 19.0052L8.05925 12.0652L15.0059 5.11585V10.1197L13.0612 12.0652L14.9965 14.0013V19.0052ZM24.6919 0.0651855V24.0652H0.691895V0.0651855H24.6919ZM20.3257 4.43307H5.05808V19.7066H20.3257V4.43307Z" fill="#EF4276"/>
</g>
<path d="M42.4312 16.3482C42.4312 17.0116 42.1469 17.5802 41.6098 18.054C41.0728 18.5279 40.362 18.7648 39.5091 18.7648C38.972 18.7648 38.435 18.6859 37.8979 18.5121C37.3609 18.3542 36.9028 18.1646 36.5553 17.9435C36.192 17.7223 35.8446 17.4696 35.5286 17.1853C35.2127 16.901 34.9916 16.7114 34.881 16.6009C34.7705 16.5061 34.6915 16.4113 34.6599 16.3482L31.106 20.0601L31.4535 20.4549C31.6904 20.7392 32.0695 21.0552 32.5907 21.4342C33.0962 21.8133 33.6964 22.1924 34.3598 22.5715C35.0232 22.9506 35.8761 23.2823 36.9186 23.5508C37.9611 23.8193 39.0352 23.9457 40.1567 23.9457C42.8893 23.9457 45.0848 23.2349 46.7433 21.7975C48.386 20.376 49.2232 18.6069 49.2232 16.5061C49.2232 15.432 49.0178 14.4843 48.6388 13.6629C48.2439 12.8416 47.7384 12.194 47.1224 11.7043C46.5064 11.2305 45.8272 10.804 45.069 10.4565C44.3108 10.109 43.5685 9.82469 42.8261 9.60355C42.0837 9.38242 41.4045 9.16128 40.7885 8.95594C40.1725 8.7506 39.667 8.49788 39.2879 8.19777C38.893 7.89766 38.7035 7.53437 38.7035 7.12369C38.7035 6.61824 38.9246 6.16017 39.3985 5.76529C39.8566 5.3862 40.441 5.18086 41.136 5.18086C41.7994 5.18086 42.447 5.35461 43.0946 5.68631C43.7422 6.03381 44.1687 6.30233 44.374 6.49187C44.5794 6.68142 44.7373 6.83937 44.8479 6.96573L48.4176 3.23804L48.1175 2.92213C47.9438 2.6852 47.6437 2.41668 47.2014 2.10078C46.7591 1.78487 46.2379 1.46896 45.6534 1.15306C45.069 0.837151 44.3266 0.568631 43.4105 0.347497C42.4944 0.126362 41.5151 0 40.4884 0C37.9769 0 35.9235 0.710789 34.3124 2.10078C32.7013 3.49076 31.9115 5.11768 31.9115 6.96573C31.9115 8.03981 32.1011 8.98753 32.4959 9.80889C32.875 10.6302 33.3805 11.2937 33.9965 11.7675C34.6125 12.2572 35.2917 12.6678 36.0341 13.0153C36.7765 13.3628 37.5189 13.6629 38.277 13.8841C39.0352 14.1052 39.7144 14.3264 40.3304 14.5159C40.9464 14.7212 41.4519 14.974 41.8468 15.2741C42.2259 15.59 42.4312 15.9375 42.4312 16.3482Z" fill="white"/>
<path d="M63.9299 0.647608L59.4124 9.38242L54.8792 0.647608H48.2451L56.3323 15.2109V23.2981H62.4767V15.2109L70.5639 0.647608H63.9299Z" fill="white"/>
<path d="M86.9133 0.647608V13.2681L77.215 0.647608H71.8762V23.2981H78.0206V10.6776L87.7505 23.2981H93.0577V0.647608H86.9133Z" fill="white"/>
<path d="M103.105 18.1172V14.2474H111.84V9.38242H103.105V5.82847H114.43V0.647608H96.9604V23.2981H114.746V18.1172H103.105Z" fill="white"/>
<path d="M117.338 23.2981H123.482V16.1744H126.72L130.606 23.2981H137.066L132.375 15.0529L132.801 14.816C133.054 14.6896 133.37 14.4685 133.749 14.121C134.128 13.7735 134.507 13.3628 134.886 12.8732C135.265 12.3835 135.581 11.7517 135.85 10.9619C136.118 10.1722 136.26 9.33503 136.26 8.4189C136.26 6.22335 135.471 4.3753 133.923 2.89054C132.375 1.40578 130.4 0.663403 128.015 0.663403H117.338V23.2981ZM130.116 8.4189C130.116 9.06651 129.879 9.60355 129.437 10.0458C128.979 10.4723 128.394 10.6934 127.684 10.6934H123.482V6.17597H127.684C128.394 6.17597 128.979 6.38131 129.437 6.80778C129.879 7.23425 130.116 7.7713 130.116 8.4189Z" fill="white"/>
<path d="M150.651 23.9457C151.852 23.9457 153.036 23.7877 154.174 23.4718C155.311 23.1559 156.243 22.7926 156.969 22.3978C157.696 21.9871 158.375 21.529 159.007 21.0078C159.639 20.4865 160.049 20.1232 160.255 19.9179C160.444 19.7126 160.586 19.5546 160.681 19.4282V10.6934H150.967V14.5791H154.521V17.0116L154.142 17.3591C153.873 17.6118 153.415 17.8645 152.768 18.1014C152.136 18.3384 151.425 18.4647 150.635 18.4647C148.787 18.4647 147.239 17.8487 146.007 16.6167C144.775 15.3846 144.159 13.8367 144.159 11.9886C144.159 10.1248 144.775 8.59265 146.007 7.36062C147.239 6.12858 148.787 5.52836 150.635 5.52836C151.33 5.52836 152.01 5.62313 152.673 5.82847C153.336 6.03381 153.873 6.27074 154.284 6.52347C154.695 6.77619 155.09 7.0763 155.469 7.408C155.848 7.73971 156.101 7.97663 156.195 8.103C156.306 8.22936 156.385 8.33993 156.448 8.4189L160.176 4.53326L159.812 4.07519C159.591 3.75928 159.212 3.3802 158.675 2.93793C158.138 2.49566 157.522 2.05339 156.811 1.61112C156.101 1.16885 155.2 0.789766 154.095 0.473859C153.005 0.157953 151.852 0 150.635 0C147.129 0 144.144 1.18465 141.695 3.53815C139.247 5.89165 138.015 8.70322 138.015 11.9728C138.015 15.2583 139.247 18.0698 141.695 20.4233C144.144 22.7768 147.129 23.9457 150.651 23.9457Z" fill="white"/>
<path d="M176.652 0.647608L172.134 9.38242L167.601 0.647608H160.967L169.054 15.2109V23.2981H175.198V15.2109L183.286 0.647608H176.652Z" fill="white"/>
<path d="M188.791 12.8301C188.791 14.0958 189.205 15.1667 190.057 16.0186C190.909 16.8949 191.968 17.3087 193.258 17.3087C194.547 17.3087 195.606 16.8949 196.458 16.0186C197.31 15.1667 197.748 14.0958 197.748 12.8301C197.748 11.5644 197.31 10.5178 196.458 9.64158C195.606 8.78968 194.547 8.35156 193.258 8.35156C191.968 8.35156 190.909 8.78968 190.057 9.64158C189.205 10.5178 188.791 11.5644 188.791 12.8301Z" fill="#EF4276"/>
<path d="M208.935 12.3045C208.935 9.65086 209.82 7.42373 211.605 5.62306C213.374 3.82239 215.569 2.92206 218.16 2.92206C220.75 2.92206 222.93 3.82239 224.715 5.62306C226.484 7.42373 227.384 9.65086 227.384 12.3045C227.384 14.9581 226.484 17.1852 224.715 18.9859C222.93 20.7866 220.75 21.6869 218.16 21.6869C215.569 21.6869 213.374 20.7866 211.605 18.9859C209.82 17.1852 208.935 14.9581 208.935 12.3045ZM229.801 12.3045C229.801 9.08223 228.664 6.33385 226.405 4.05932C224.13 1.80059 221.382 0.66333 218.16 0.66333C214.922 0.66333 212.173 1.80059 209.915 4.05932C207.64 6.33385 206.519 9.08223 206.519 12.3045C206.519 15.5425 207.64 18.2909 209.915 20.5496C212.173 22.8242 214.922 23.9456 218.16 23.9456C221.382 23.9456 224.13 22.8242 226.405 20.5496C228.664 18.2909 229.801 15.5425 229.801 12.3045Z" fill="white"/>
<path d="M235.464 8.10292H233.206V23.6297H235.464V15.0529C235.464 13.5523 235.922 12.3203 236.854 11.3568C237.771 10.3774 238.924 9.90359 240.314 9.90359C241.546 9.90359 242.541 10.3143 243.33 11.1356C244.12 11.957 244.515 13.0627 244.515 14.421V23.6455H246.79V14.421C246.79 12.415 246.205 10.8039 245.036 9.58768C243.868 8.38724 242.335 7.77122 240.472 7.77122C239.84 7.77122 239.239 7.86599 238.655 8.05554C238.071 8.24508 237.597 8.45042 237.249 8.67155C236.902 8.89269 236.57 9.16121 236.254 9.46132C235.938 9.77723 235.733 9.98256 235.654 10.0931C235.559 10.2195 235.496 10.2985 235.464 10.3617V8.10292Z" fill="white"/>
<path d="M253.417 0.979236H251.158V23.6297H253.417V0.979236Z" fill="white"/>
<path d="M257.801 23.6297H260.06V8.10292H257.801V23.6297ZM257.469 2.92206C257.469 3.33274 257.596 3.68024 257.88 3.96455C258.164 4.24887 258.512 4.37523 258.922 4.37523C259.333 4.37523 259.665 4.24887 259.949 3.96455C260.233 3.68024 260.376 3.33274 260.376 2.92206C260.376 2.51138 260.233 2.17968 259.949 1.89536C259.665 1.61105 259.333 1.46889 258.922 1.46889C258.512 1.46889 258.164 1.61105 257.88 1.89536C257.596 2.17968 257.469 2.51138 257.469 2.92206Z" fill="white"/>
<path d="M266.545 8.10292H264.286V23.6297H266.545V15.0529C266.545 13.5523 267.003 12.3203 267.935 11.3568C268.851 10.3774 270.004 9.90359 271.394 9.90359C272.626 9.90359 273.621 10.3143 274.411 11.1356C275.2 11.957 275.595 13.0627 275.595 14.421V23.6455H277.87V14.421C277.87 12.415 277.285 10.8039 276.117 9.58768C274.948 8.38724 273.416 7.77122 271.552 7.77122C270.92 7.77122 270.32 7.86599 269.735 8.05554C269.151 8.24508 268.677 8.45042 268.329 8.67155C267.982 8.89269 267.65 9.16121 267.334 9.46132C267.018 9.77723 266.813 9.98256 266.734 10.0931C266.639 10.2195 266.576 10.2985 266.545 10.3617V8.10292Z" fill="white"/>
<path d="M295.822 16.7114L295.98 15.5425C295.98 13.2996 295.269 11.4515 293.848 9.98256C292.426 8.5136 290.657 7.77122 288.54 7.77122C286.487 7.77122 284.718 8.56099 283.202 10.1405C281.685 11.72 280.943 13.6155 280.943 15.8584C280.943 18.1014 281.701 20.0126 283.233 21.5921C284.75 23.1717 286.582 23.9456 288.698 23.9456C289.472 23.9456 290.231 23.8351 290.973 23.5981C291.715 23.3612 292.316 23.1085 292.789 22.8242C293.263 22.5398 293.69 22.2239 294.1 21.8606C294.511 21.4973 294.764 21.2446 294.89 21.0867C295.017 20.9287 295.111 20.8182 295.175 20.7234L293.721 19.2702L293.169 19.902C292.821 20.3443 292.221 20.7708 291.399 21.1972C290.562 21.6395 289.662 21.8448 288.698 21.8448C287.245 21.8448 285.997 21.3394 284.923 20.3127C283.849 19.3018 283.281 18.0856 283.202 16.6798L295.822 16.7114ZM288.54 9.88779C289.899 9.88779 291.052 10.3459 292.015 11.262C292.979 12.1781 293.548 13.347 293.721 14.737H283.202C283.375 13.4259 283.976 12.2887 284.987 11.3252C285.997 10.3774 287.182 9.88779 288.54 9.88779Z" fill="white"/>
<defs>
<clipPath id="clip0">
<rect width="24" height="24" fill="white" transform="translate(0.691895 0.065918)"/>
</clipPath>
</defs>
</svg>
