<svg width="24" height="18" viewBox="0 0 24 18" fill="none" xmlns="http://www.w3.org/2000/svg">
<path fill-rule="evenodd" clip-rule="evenodd" d="M23.8939 2.2459C23.0982 2.58082 22.1888 2.80407 21.1658 2.9157C22.0752 2.35751 22.8709 1.4644 23.2119 0.459656C22.3025 1.01785 21.2794 1.35276 20.2564 1.57603C19.4607 0.682932 18.2103 0.124756 16.8462 0.124756C14.2317 0.124756 12.1856 2.13424 12.1856 4.59027C12.1856 4.92519 12.1856 5.26013 12.2993 5.59504C8.43443 5.37176 5.02425 3.58554 2.63712 0.906235C2.18243 1.57606 1.95509 2.35753 1.95509 3.13899C1.95509 4.70192 2.75079 6.04154 4.00119 6.93464C3.20548 6.93464 2.52345 6.71136 1.84141 6.37645C1.84141 6.37645 1.84141 6.37649 1.84141 6.48813C1.84141 8.72089 3.43283 10.5071 5.59261 10.9536C5.25159 11.0653 4.79691 11.0653 4.34221 11.0653C4.0012 11.0653 3.77385 11.0653 3.43283 10.9536C4.00119 12.7399 5.70629 14.0795 7.7524 14.0795C6.16098 15.3075 4.11487 15.9774 1.95509 15.9774C1.61407 15.9774 1.15938 15.9773 0.818363 15.8657C2.86447 17.2053 5.36527 17.8752 7.97974 17.8752C16.5052 17.8752 21.2794 10.9537 21.2794 5.03685C21.2794 4.81357 21.2794 4.5903 21.2794 4.47866C22.5298 3.92047 23.3256 3.13901 23.8939 2.2459Z" fill="white" fill-opacity="0.5"/>
</svg>
