<svg width="19" height="18" viewBox="0 0 19 18" fill="none" xmlns="http://www.w3.org/2000/svg">
<g clip-path="url(#clip0)">
<path d="M17.192 12.6901V14.9401C17.1928 15.1489 17.15 15.3557 17.0664 15.5471C16.9827 15.7385 16.8599 15.9103 16.706 16.0515C16.5521 16.1927 16.3704 16.3002 16.1725 16.3671C15.9747 16.434 15.765 16.4589 15.557 16.4401C13.2491 16.1893 11.0322 15.4007 9.08447 14.1376C7.27234 12.9861 5.73597 11.4497 4.58447 9.63757C3.31695 7.68098 2.52815 5.45332 2.28197 3.13507C2.26322 2.92767 2.28787 2.71864 2.35434 2.52129C2.42081 2.32394 2.52764 2.14259 2.66804 1.98879C2.80844 1.83499 2.97932 1.7121 3.16981 1.62796C3.3603 1.54382 3.56622 1.50027 3.77447 1.50007H6.02447C6.38845 1.49649 6.74131 1.62538 7.01729 1.86272C7.29327 2.10006 7.47352 2.42966 7.52447 2.79007C7.61943 3.51012 7.79555 4.21712 8.04947 4.89757C8.15037 5.16602 8.17221 5.45776 8.1124 5.73823C8.05258 6.01871 7.91361 6.27616 7.71197 6.48007L6.75947 7.43257C7.82713 9.31023 9.38181 10.8649 11.2595 11.9326L12.212 10.9801C12.4159 10.7784 12.6733 10.6395 12.9538 10.5796C13.2343 10.5198 13.526 10.5417 13.7945 10.6426C14.4749 10.8965 15.1819 11.0726 15.902 11.1676C16.2663 11.219 16.599 11.4025 16.8369 11.6832C17.0747 11.9639 17.2011 12.3223 17.192 12.6901Z" stroke="white" stroke-opacity="0.5" stroke-width="2" stroke-linecap="round" stroke-linejoin="round"/>
</g>
<defs>
<clipPath id="clip0">
<rect width="18" height="18" fill="white" transform="translate(0.691895)"/>
</clipPath>
</defs>
</svg>
