<svg width="20" height="20" viewBox="0 0 20 20" fill="none" xmlns="http://www.w3.org/2000/svg">
<path fill-rule="evenodd" clip-rule="evenodd" d="M3.46538 19.2908C5.5786 19.8603 7.7731 19.7302 9.93508 19.7627C9.80503 17.7288 9.93508 15.6135 9.25235 13.661C8.73217 12.164 7.43173 11.0088 5.88745 10.6345C4.06684 10.1952 2.16494 10.1627 0.295556 10.1464C0.360578 12.4244 0.198023 14.7837 0.913266 16.9803C1.27089 18.1681 2.29498 19.0142 3.46538 19.2908ZM10.2114 19.7627C12.4547 19.7139 14.763 19.8766 16.9412 19.2095C18.0466 18.884 18.9406 17.9891 19.2657 16.8664C19.916 14.6861 19.7859 12.3918 19.8184 10.1464C17.9491 10.1627 16.0472 10.1952 14.2265 10.6345C12.6498 11.0088 11.3168 12.2291 10.8291 13.7749C10.2114 15.7112 10.309 17.7613 10.2114 19.7627ZM0.295556 9.85352C1.95362 9.83725 3.62794 9.77216 5.26974 9.49555C6.8953 9.25149 8.47208 8.24267 9.10605 6.6969C9.96759 4.663 9.74001 2.4013 9.91882 0.237228C7.96816 0.253498 6.00124 0.188414 4.08309 0.546381C2.99397 0.757908 1.82357 1.22977 1.25463 2.25486C0.523133 3.57283 0.441855 5.11859 0.360578 6.59928C0.344322 7.68945 0.2793 8.76335 0.295556 9.85352ZM14.5029 9.43047C16.2422 9.78844 18.0466 9.83725 19.8184 9.85352C19.7859 7.60809 19.9322 5.31385 19.2657 3.1335C18.9406 2.02706 18.0628 1.13214 16.9575 0.806721C14.7792 0.139601 12.4547 0.286041 10.2114 0.253498C10.309 2.2874 10.2114 4.40266 10.8779 6.35521C11.4143 7.94979 12.8611 9.10504 14.5029 9.43047Z" fill="white" fill-opacity="0.5"/>
</svg>
