<svg width="12" height="22" viewBox="0 0 12 22" fill="none" xmlns="http://www.w3.org/2000/svg">
<path d="M11.3471 0.00457747L8.56742 0C5.44449 0 3.42631 2.12509 3.42631 5.41423V7.91055H0.631421C0.38991 7.91055 0.194336 8.1115 0.194336 8.35937V11.9763C0.194336 12.2241 0.390133 12.4249 0.631421 12.4249H3.42631V21.5514C3.42631 21.7993 3.62189 22 3.8634 22H7.50994C7.75145 22 7.94702 21.799 7.94702 21.5514V12.4249H11.2149C11.4564 12.4249 11.652 12.2241 11.652 11.9763L11.6533 8.35937C11.6533 8.24036 11.6072 8.12638 11.5253 8.04215C11.4435 7.95793 11.332 7.91055 11.216 7.91055H7.94702V5.79439C7.94702 4.77727 8.18318 4.26094 9.47415 4.26094L11.3467 4.26025C11.588 4.26025 11.7836 4.0593 11.7836 3.81166V0.453169C11.7836 0.205757 11.5882 0.00503522 11.3471 0.00457747Z" fill="white" fill-opacity="0.5"/>
</svg>
