<svg width="19" height="18" viewBox="0 0 19 18" fill="none" xmlns="http://www.w3.org/2000/svg">
<path d="M16.4419 8.62502C16.4445 9.61492 16.2132 10.5914 15.7669 11.475C15.2377 12.5338 14.4242 13.4244 13.4175 14.047C12.4108 14.6696 11.2506 14.9996 10.0669 15C9.07699 15.0026 8.10048 14.7713 7.21689 14.325L2.94189 15.75L4.36689 11.475C3.92059 10.5914 3.68931 9.61492 3.69189 8.62502C3.69235 7.44134 4.02235 6.28116 4.64493 5.27443C5.26751 4.26771 6.15809 3.4542 7.21689 2.92502C8.10048 2.47872 9.07699 2.24744 10.0669 2.25002H10.4419C12.0052 2.33627 13.4817 2.99609 14.5887 4.10317C15.6958 5.21024 16.3557 6.68676 16.4419 8.25002V8.62502Z" stroke="white" stroke-opacity="0.5" stroke-width="2" stroke-linecap="round" stroke-linejoin="round"/>
</svg>
