<svg width="23" height="22" viewBox="0 0 23 22" fill="none" xmlns="http://www.w3.org/2000/svg">
<path d="M13.6806 11.0002C13.6806 12.1261 12.7679 13.0387 11.642 13.0387C10.5162 13.0387 9.60352 12.1261 9.60352 11.0002C9.60352 9.87433 10.5162 8.96167 11.642 8.96167C12.7679 8.96167 13.6806 9.87433 13.6806 11.0002Z" fill="white" fill-opacity="0.5"/>
<path d="M16.4096 7.39391C16.3116 7.12837 16.1552 6.88802 15.9521 6.69073C15.7548 6.48759 15.5146 6.33126 15.2489 6.23326C15.0334 6.14957 14.7097 6.04995 14.1135 6.02281C13.4685 5.9934 13.2751 5.98706 11.6422 5.98706C10.0091 5.98706 9.81573 5.99324 9.17089 6.02265C8.57464 6.04995 8.25076 6.14957 8.03543 6.23326C7.76973 6.33126 7.52937 6.48759 7.33225 6.69073C7.12911 6.88802 6.97278 7.12821 6.87462 7.39391C6.79093 7.6094 6.69131 7.93328 6.66417 8.52953C6.63476 9.17437 6.62842 9.36776 6.62842 11.0008C6.62842 12.6337 6.63476 12.8271 6.66417 13.4721C6.69131 14.0684 6.79093 14.3921 6.87462 14.6076C6.97278 14.8733 7.12895 15.1135 7.33209 15.3107C7.52937 15.5139 7.76956 15.6702 8.03527 15.7682C8.25076 15.8521 8.57464 15.9517 9.17089 15.9788C9.81573 16.0082 10.009 16.0144 11.642 16.0144C13.2752 16.0144 13.4686 16.0082 14.1133 15.9788C14.7096 15.9517 15.0334 15.8521 15.2489 15.7682C15.7823 15.5625 16.2038 15.1409 16.4096 14.6076C16.4933 14.3921 16.5929 14.0684 16.6202 13.4721C16.6496 12.8271 16.6558 12.6337 16.6558 11.0008C16.6558 9.36776 16.6496 9.17437 16.6202 8.52953C16.593 7.93328 16.4934 7.6094 16.4096 7.39391ZM11.6422 14.141C9.90771 14.141 8.50167 12.7351 8.50167 11.0007C8.50167 9.26619 9.90771 7.86031 11.6422 7.86031C13.3765 7.86031 14.7825 9.26619 14.7825 11.0007C14.7825 12.7351 13.3765 14.141 11.6422 14.141ZM14.9067 8.47005C14.5014 8.47005 14.1728 8.14146 14.1728 7.73616C14.1728 7.33086 14.5014 7.00226 14.9067 7.00226C15.312 7.00226 15.6406 7.33086 15.6406 7.73616C15.6404 8.14146 15.312 8.47005 14.9067 8.47005Z" fill="white" fill-opacity="0.5"/>
<path d="M11.6424 0.349854C5.76137 0.349854 0.992188 5.11903 0.992188 11.0001C0.992188 16.8812 5.76137 21.6504 11.6424 21.6504C17.5235 21.6504 22.2927 16.8812 22.2927 11.0001C22.2927 5.11903 17.5235 0.349854 11.6424 0.349854ZM17.7211 13.5215C17.6916 14.1725 17.588 14.6169 17.4369 15.006C17.1192 15.8275 16.4698 16.4769 15.6483 16.7946C15.2594 16.9457 14.8148 17.0491 14.1639 17.0788C13.5118 17.1085 13.3035 17.1157 11.6426 17.1157C9.98159 17.1157 9.77342 17.1085 9.1211 17.0788C8.47025 17.0491 8.02562 16.9457 7.63673 16.7946C7.22851 16.641 6.85896 16.4003 6.55344 16.0891C6.2424 15.7838 6.00172 15.414 5.84815 15.006C5.69701 14.6171 5.5935 14.1725 5.56392 13.5216C5.53385 12.8693 5.52687 12.661 5.52687 11.0001C5.52687 9.33926 5.53385 9.13092 5.56376 8.47877C5.59333 7.82775 5.69669 7.38329 5.84782 6.99424C6.0014 6.58618 6.24224 6.21646 6.55344 5.91111C6.8588 5.5999 7.22851 5.35922 7.63657 5.20565C8.02562 5.05452 8.47009 4.95116 9.1211 4.92142C9.77325 4.89168 9.98159 4.88453 11.6424 4.88453C13.3033 4.88453 13.5116 4.89168 14.1638 4.92159C14.8148 4.95116 15.2593 5.05452 15.6483 5.20549C16.0564 5.35906 16.4261 5.5999 16.7316 5.91111C17.0427 6.21663 17.2835 6.58618 17.4369 6.99424C17.5882 7.38329 17.6916 7.82775 17.7213 8.47877C17.751 9.13092 17.758 9.33926 17.758 11.0001C17.758 12.661 17.751 12.8693 17.7211 13.5215Z" fill="white" fill-opacity="0.5"/>
</svg>
