<svg width="23" height="20" viewBox="0 0 23 20" fill="none" xmlns="http://www.w3.org/2000/svg">
<path d="M1.27027 9.61987L6.17834 11.4517L8.07806 17.5612C8.19961 17.9525 8.67809 18.0971 8.99568 17.8375L11.7315 15.6072C12.0183 15.3735 12.4268 15.3618 12.7265 15.5794L17.6609 19.1619C18.0007 19.4089 18.482 19.2227 18.5672 18.8122L22.182 1.42449C22.275 0.976047 21.8344 0.601939 21.4073 0.767089L1.26452 8.53759C0.767439 8.72929 0.77177 9.43306 1.27027 9.61987ZM7.7719 10.4766L17.3641 4.56873C17.5365 4.46287 17.7138 4.69597 17.5658 4.83329L9.64947 12.1919C9.37121 12.4509 9.19172 12.7975 9.14088 13.1738L8.87122 15.1722C8.8355 15.439 8.46069 15.4655 8.38706 15.2073L7.34994 11.5631C7.23115 11.1475 7.40425 10.7035 7.7719 10.4766Z" fill="white" fill-opacity="0.5"/>
</svg>
