<svg width="19" height="18" viewBox="0 0 19 18" fill="none" xmlns="http://www.w3.org/2000/svg">
<g clip-path="url(#clip0)">
<path fill-rule="evenodd" clip-rule="evenodd" d="M3.38035 4.1112C3.46628 4.04186 3.57495 4 3.69198 4H15.692C15.809 4 15.9177 4.04186 16.0036 4.1112L9.69198 8.52934L3.38035 4.1112ZM1.19205 4.48165C1.19187 4.49186 1.19185 4.50206 1.19198 4.51225V13.5C1.19198 14.8773 2.3147 16 3.69198 16H15.692C17.0693 16 18.192 14.8773 18.192 13.5V4.51222C18.1921 4.50205 18.1921 4.49187 18.1919 4.48169C18.182 3.11278 17.0632 2 15.692 2H3.69198C2.32082 2 1.20196 3.11276 1.19205 4.48165ZM16.192 6.42066V13.5C16.192 13.7727 15.9647 14 15.692 14H3.69198C3.41927 14 3.19198 13.7727 3.19198 13.5V6.42066L9.11852 10.5692C9.46284 10.8103 9.92112 10.8103 10.2654 10.5692L16.192 6.42066Z" fill="white" fill-opacity="0.5"/>
</g>
<defs>
<clipPath id="clip0">
<rect width="18" height="18" fill="white" transform="translate(0.691895)"/>
</clipPath>
</defs>
</svg>
