<svg width="277" height="23" viewBox="0 0 277 23" fill="none" xmlns="http://www.w3.org/2000/svg">
<g clip-path="url(#clip0)">
<path d="M14.0384 17.8789L7.5658 11.4038L14.0472 4.9199V9.58864L12.2327 11.4038L14.0384 13.2102V17.8789ZM23.0844 0.20752V22.6H0.691895V0.20752H23.0844ZM19.0107 4.28285H4.76564V18.5334H19.0107V4.28285Z" fill="#FE006B"/>
</g>
<path d="M39.6355 15.3997C39.6355 16.0186 39.3703 16.5492 38.8692 16.9913C38.3681 17.4334 37.7049 17.6545 36.9091 17.6545C36.4081 17.6545 35.907 17.5808 35.4059 17.4187C34.9048 17.2713 34.4775 17.0945 34.1532 16.8881C33.8143 16.6818 33.4901 16.446 33.1953 16.1807C32.9006 15.9155 32.6942 15.7386 32.5911 15.6355C32.4879 15.547 32.4142 15.4586 32.3848 15.3997L29.0688 18.8629L29.3931 19.2314C29.6141 19.4967 29.9678 19.7914 30.4542 20.1451C30.9258 20.4988 31.4858 20.8525 32.1047 21.2062C32.7237 21.5599 33.5195 21.8694 34.4922 22.1199C35.4649 22.3704 36.467 22.4883 37.5134 22.4883C40.0629 22.4883 42.1114 21.8252 43.6588 20.4841C45.1915 19.1577 45.9726 17.5071 45.9726 15.547C45.9726 14.5449 45.781 13.6607 45.4273 12.8943C45.0589 12.128 44.5873 11.5237 44.0125 11.0669C43.4378 10.6248 42.8041 10.2268 42.0967 9.90263C41.3893 9.5784 40.6966 9.31313 40.004 9.10681C39.3113 8.90048 38.6776 8.69416 38.1029 8.50257C37.5281 8.31099 37.0565 8.07519 36.7028 7.79518C36.3344 7.51517 36.1575 7.17621 36.1575 6.79304C36.1575 6.32144 36.3638 5.89406 36.806 5.52563C37.2334 5.17193 37.7786 4.98034 38.4271 4.98034C39.0461 4.98034 39.6503 5.14245 40.2545 5.45194C40.8587 5.77616 41.2567 6.0267 41.4482 6.20354C41.6398 6.38039 41.7872 6.52777 41.8904 6.64567L45.221 3.16765L44.941 2.8729C44.7789 2.65184 44.4989 2.4013 44.0862 2.10655C43.6736 1.81181 43.1873 1.51706 42.642 1.22231C42.0967 0.927565 41.404 0.67703 40.5493 0.470706C39.6945 0.264383 38.7808 0.146484 37.8228 0.146484C35.4796 0.146484 33.5637 0.809666 32.0605 2.10655C30.5573 3.40344 29.8205 4.92139 29.8205 6.64567C29.8205 7.64781 29.9973 8.53205 30.3657 9.29839C30.7194 10.0647 31.191 10.6837 31.7658 11.1258C32.3405 11.5827 32.9743 11.9659 33.6669 12.2901C34.3596 12.6143 35.0522 12.8943 35.7596 13.1006C36.467 13.307 37.1007 13.5133 37.6755 13.6901C38.2502 13.8817 38.7218 14.1175 39.0903 14.3975C39.444 14.6923 39.6355 15.0165 39.6355 15.3997Z" fill="white"/>
<path d="M59.6943 0.750716L55.4794 8.90048L51.2498 0.750716H45.0601L52.6056 14.3386V21.8841H58.3384V14.3386L65.884 0.750716H59.6943Z" fill="white"/>
<path d="M81.1384 0.750716V12.5259L72.0896 0.750716H67.1084V21.8841H72.8412V10.1089L81.9194 21.8841H86.8712V0.750716H81.1384Z" fill="white"/>
<path d="M96.2453 17.0503V13.4396H104.395V8.90048H96.2453V5.58457H106.812V0.750716H90.5125V21.8841H107.107V17.0503H96.2453Z" fill="white"/>
<path d="M109.525 21.8841H115.258V15.2376H118.279L121.904 21.8841H127.932L123.555 14.1912L123.953 13.9701C124.189 13.8522 124.483 13.6459 124.837 13.3217C125.191 12.9975 125.544 12.6143 125.898 12.1574C126.252 11.7006 126.547 11.1111 126.797 10.3742C127.048 9.63735 127.18 8.85627 127.18 8.0015C127.18 5.95301 126.443 4.22874 124.999 2.84342C123.555 1.45811 121.713 0.765454 119.487 0.765454H109.525V21.8841ZM121.447 8.0015C121.447 8.60574 121.226 9.10681 120.814 9.51945C120.386 9.91736 119.841 10.1237 119.178 10.1237H115.258V5.9088H119.178C119.841 5.9088 120.386 6.10038 120.814 6.49829C121.226 6.8962 121.447 7.39727 121.447 8.0015Z" fill="white"/>
<path d="M140.607 22.4883C141.727 22.4883 142.833 22.341 143.894 22.0462C144.955 21.7515 145.824 21.4125 146.502 21.0441C147.18 20.6609 147.814 20.2335 148.403 19.7472C148.993 19.2609 149.376 18.9219 149.568 18.7303C149.744 18.5387 149.877 18.3914 149.965 18.2735V10.1237H140.902V13.7491H144.218V16.0186L143.864 16.3429C143.614 16.5787 143.186 16.8145 142.582 17.0355C141.993 17.2566 141.329 17.3745 140.592 17.3745C138.868 17.3745 137.424 16.7997 136.274 15.6502C135.125 14.5007 134.55 13.0564 134.55 11.3322C134.55 9.59314 135.125 8.16362 136.274 7.0141C137.424 5.86459 138.868 5.30456 140.592 5.30456C141.241 5.30456 141.875 5.39299 142.494 5.58457C143.113 5.77616 143.614 5.99722 143.997 6.23302C144.38 6.46882 144.748 6.74883 145.102 7.05831C145.456 7.3678 145.692 7.58886 145.78 7.70676C145.883 7.82466 145.957 7.92782 146.016 8.0015L149.494 4.37611L149.155 3.94873C148.949 3.65398 148.595 3.30028 148.094 2.88764C147.593 2.47499 147.018 2.06234 146.355 1.6497C145.692 1.23705 144.852 0.883353 143.82 0.588605C142.803 0.293858 141.727 0.146484 140.592 0.146484C137.321 0.146484 134.535 1.25179 132.251 3.44766C129.967 5.64352 128.817 8.26678 128.817 11.3174C128.817 14.3828 129.967 17.006 132.251 19.2019C134.535 21.3978 137.321 22.4883 140.607 22.4883Z" fill="white"/>
<path d="M164.866 0.750716L160.651 8.90048L156.422 0.750716H150.232L157.777 14.3386V21.8841H163.51V14.3386L171.056 0.750716H164.866Z" fill="white"/>
<path d="M176.192 12.1175C176.192 13.2984 176.579 14.2977 177.374 15.0925C178.169 15.9101 179.157 16.2961 180.36 16.2961C181.563 16.2961 182.552 15.9101 183.346 15.0925C184.141 14.2977 184.55 13.2984 184.55 12.1175C184.55 10.9366 184.141 9.96013 183.346 9.14258C182.552 8.34774 181.563 7.93896 180.36 7.93896C179.157 7.93896 178.169 8.34774 177.374 9.14258C176.579 9.96013 176.192 10.9366 176.192 12.1175Z" fill="#FE006B"/>
<path d="M194.987 11.6271C194.987 9.15119 195.813 7.07322 197.478 5.39316C199.128 3.7131 201.177 2.87307 203.594 2.87307C206.011 2.87307 208.045 3.7131 209.71 5.39316C211.36 7.07322 212.2 9.15119 212.2 11.6271C212.2 14.1029 211.36 16.1809 209.71 17.861C208.045 19.541 206.011 20.3811 203.594 20.3811C201.177 20.3811 199.128 19.541 197.478 17.861C195.813 16.1809 194.987 14.1029 194.987 11.6271ZM214.455 11.6271C214.455 8.62065 213.394 6.05634 211.287 3.93416C209.165 1.82672 206.6 0.765625 203.594 0.765625C200.573 0.765625 198.008 1.82672 195.901 3.93416C193.779 6.05634 192.732 8.62065 192.732 11.6271C192.732 14.6482 193.779 17.2125 195.901 19.32C198.008 21.4422 200.573 22.4885 203.594 22.4885C206.6 22.4885 209.165 21.4422 211.287 19.32C213.394 17.2125 214.455 14.6482 214.455 11.6271Z" fill="white"/>
<path d="M219.74 7.70693H217.632V22.1938H219.74V14.1914C219.74 12.7913 220.167 11.6418 221.036 10.7428C221.891 9.82911 222.967 9.38699 224.264 9.38699C225.413 9.38699 226.342 9.77016 227.079 10.5365C227.816 11.3028 228.184 12.3345 228.184 13.6019V22.2085H230.306V13.6019C230.306 11.7302 229.761 10.227 228.67 9.09224C227.58 7.9722 226.15 7.39744 224.411 7.39744C223.822 7.39744 223.262 7.48587 222.716 7.66271C222.171 7.83956 221.729 8.03115 221.405 8.23747C221.081 8.4438 220.771 8.69433 220.476 8.97434C220.182 9.26909 219.99 9.46067 219.916 9.56384C219.828 9.68173 219.769 9.75542 219.74 9.81437V7.70693Z" fill="white"/>
<path d="M236.489 1.06037H234.382V22.1938H236.489V1.06037Z" fill="white"/>
<path d="M240.58 22.1938H242.687V7.70693H240.58V22.1938ZM240.27 2.87307C240.27 3.25624 240.388 3.58046 240.654 3.84574C240.919 4.11101 241.243 4.22891 241.626 4.22891C242.009 4.22891 242.319 4.11101 242.584 3.84574C242.85 3.58046 242.982 3.25624 242.982 2.87307C242.982 2.4899 242.85 2.18041 242.584 1.91514C242.319 1.64987 242.009 1.51723 241.626 1.51723C241.243 1.51723 240.919 1.64987 240.654 1.91514C240.388 2.18041 240.27 2.4899 240.27 2.87307Z" fill="white"/>
<path d="M248.738 7.70693H246.631V22.1938H248.738V14.1914C248.738 12.7913 249.165 11.6418 250.035 10.7428C250.89 9.82911 251.965 9.38699 253.262 9.38699C254.412 9.38699 255.34 9.77016 256.077 10.5365C256.814 11.3028 257.182 12.3345 257.182 13.6019V22.2085H259.305V13.6019C259.305 11.7302 258.759 10.227 257.669 9.09224C256.578 7.9722 255.149 7.39744 253.41 7.39744C252.82 7.39744 252.26 7.48587 251.715 7.66271C251.17 7.83956 250.728 8.03115 250.403 8.23747C250.079 8.4438 249.77 8.69433 249.475 8.97434C249.18 9.26909 248.989 9.46067 248.915 9.56384C248.826 9.68173 248.767 9.75542 248.738 9.81437V7.70693Z" fill="white"/>
<path d="M276.055 15.7388L276.202 14.6482C276.202 12.5555 275.539 10.8313 274.212 9.46067C272.886 8.0901 271.235 7.39744 269.261 7.39744C267.345 7.39744 265.694 8.13431 264.279 9.60805C262.865 11.0818 262.172 12.8503 262.172 14.943C262.172 17.0357 262.879 18.8189 264.309 20.2926C265.724 21.7664 267.433 22.4885 269.408 22.4885C270.13 22.4885 270.838 22.3853 271.53 22.1643C272.223 21.9432 272.783 21.7074 273.225 21.4422C273.667 21.1769 274.065 20.8821 274.448 20.5432C274.831 20.2042 275.067 19.9684 275.185 19.821C275.303 19.6737 275.391 19.5705 275.45 19.4821L274.095 18.1262L273.579 18.7157C273.254 19.1284 272.694 19.5263 271.928 19.9242C271.147 20.3369 270.307 20.5284 269.408 20.5284C268.052 20.5284 266.888 20.0568 265.886 19.0989C264.884 18.1557 264.353 17.0209 264.279 15.7093L276.055 15.7388ZM269.261 9.37225C270.528 9.37225 271.604 9.79963 272.503 10.6544C273.402 11.5092 273.932 12.5997 274.095 13.8966H264.279C264.442 12.6734 265.002 11.6123 265.945 10.7134C266.888 9.82911 267.993 9.37225 269.261 9.37225Z" fill="white"/>
<defs>
<clipPath id="clip0">
<rect width="22.3925" height="22.3925" fill="white" transform="translate(0.691895 0.208496)"/>
</clipPath>
</defs>
</svg>
