<svg width="76" height="27" viewBox="0 0 76 27" fill="none" xmlns="http://www.w3.org/2000/svg">
<g clip-path="url(#clip0)">
<path d="M22.0615 3.53814H4.33217L5.61228 0H23.3416L22.0615 3.53814ZM21.423 5.3072H3.69367L2.41356 8.84534H20.1429L21.423 5.3072ZM19.5075 10.6144H1.77815L0.498047 14.1494H18.2274L19.5075 10.6144Z" fill="#00AEEF"/>
<path d="M64.3014 22.9702H67.4753C68.6779 22.9702 69.4094 22.6769 69.9208 22.0155C70.175 21.6848 70.5407 21.0982 70.5407 19.9968C70.5407 18.8954 70.175 18.1248 69.4466 17.5725C69.0096 17.2418 68.4238 17.0577 67.4412 17.0577H64.3045V22.9702H64.3014ZM60.1077 26.5333V5.30762H73.8263L72.6236 8.87071H64.3045V13.5726H67.6985C70.4354 13.5726 71.858 14.2341 72.8437 15.0796C73.6093 15.7411 74.9235 17.2106 74.9235 20.1122C74.9235 22.9765 73.5721 24.5552 72.4439 25.3633C71.1297 26.2806 69.7442 26.5395 66.936 26.5395H60.1077V26.5333ZM47.9575 26.5333V8.87071H41.8639V5.30762H58.7904L57.5878 8.87071H52.1884V26.5333H47.9575ZM31.0682 13.791H33.4393C34.1677 13.791 34.5335 13.791 34.8992 13.6818C35.8849 13.3885 36.5048 12.5056 36.5048 11.295C36.5048 9.86289 35.8477 9.23888 34.8992 8.94559C34.4994 8.83639 34.0964 8.79895 33.2936 8.79895H31.0682V13.791ZM31.1054 17.4633V23.0451H34.0251C34.8992 23.0451 35.702 22.9702 36.2878 22.4211C36.8705 21.8688 37.1278 21.1731 37.1278 20.2558C37.1278 19.5569 36.9449 18.8985 36.5792 18.4181C35.9592 17.6474 35.1937 17.4633 33.8795 17.4633H31.1054ZM37.8531 15.2231V15.298C38.6558 15.5913 39.4214 16.1061 39.8244 16.4368C41.0642 17.4664 41.6128 18.8237 41.6128 20.5865C41.6128 23.4881 40.0816 25.5817 37.5648 26.2431C36.7992 26.4647 35.9964 26.5364 34.4994 26.5364H26.8745V5.30762H33.6222C35.0077 5.30762 35.9561 5.3825 36.7961 5.6009C39.2417 6.26235 40.8441 7.9503 40.8441 10.6335C40.8441 12.0656 40.3327 13.2762 39.4958 14.0843C39.1301 14.4525 38.6186 14.8924 37.8531 15.2231Z" fill="white"/>
</g>
<defs>
<clipPath id="clip0">
<rect width="75.194" height="26.5391" fill="white" transform="translate(0.498047)"/>
</clipPath>
</defs>
</svg>
