<svg width="203" height="59" viewBox="0 0 203 59" fill="none" xmlns="http://www.w3.org/2000/svg">
<path d="M201.707 51.7124C201.707 54.8275 199.131 57.3507 195.945 57.3507H7.38512C4.2006 57.3507 1.61572 54.8275 1.61572 51.7124V6.7487C1.61572 3.63512 4.2006 1.10303 7.38512 1.10303H195.943C199.131 1.10303 201.705 3.63512 201.705 6.7487L201.707 51.7124Z" fill="black"/>
<path d="M195.337 1.17101C198.806 1.17101 201.63 3.92381 201.63 7.30681V51.1469C201.63 54.5299 198.806 57.2827 195.337 57.2827H7.98574C4.516 57.2827 1.69262 54.5299 1.69262 51.1469V7.30681C1.69262 3.92381 4.516 1.17101 7.98574 1.17101H195.337ZM195.337 0.000119896H7.98574C3.86589 0.000119896 0.491699 3.28995 0.491699 7.30681V51.1469C0.491699 55.1638 3.86589 58.4536 7.98574 58.4536H195.337C199.457 58.4536 202.831 55.1638 202.831 51.1469V7.30681C202.831 3.28995 199.457 0.000119896 195.337 0.000119896Z" fill="#A6A6A6"/>
<path d="M45.648 28.9109C45.6046 24.201 49.6034 21.9097 49.7862 21.803C47.5215 18.5837 44.0113 18.1438 42.7778 18.1087C39.8297 17.8062 36.9699 19.8287 35.4681 19.8287C33.9363 19.8287 31.6237 18.1379 29.1312 18.1876C25.9237 18.2359 22.9231 20.0465 21.2774 22.8581C17.8811 28.5909 20.4141 37.0155 23.668 41.6494C25.2957 43.9189 27.1977 46.4528 29.6872 46.3637C32.1228 46.2658 33.0326 44.8497 35.9717 44.8497C38.8839 44.8497 39.7382 46.3637 42.2772 46.3067C44.8911 46.2658 46.5368 44.027 48.1076 41.7371C49.9886 39.1359 50.744 36.5742 50.7739 36.4427C50.7125 36.4222 45.6975 34.5561 45.648 28.9109Z" fill="white"/>
<path d="M40.8518 15.0604C42.1618 13.4631 43.0581 11.2901 42.8093 9.08496C40.9133 9.1668 38.5422 10.3636 37.1768 11.9258C35.9687 13.3024 34.8896 15.5587 35.1684 17.6805C37.2982 17.8354 39.4849 16.6328 40.8518 15.0604Z" fill="white"/>
<path d="M80.8953 46.0378H77.4915L75.6269 40.3254H69.1461L67.37 46.0378H64.0562L70.477 26.5903H74.4429L80.8953 46.0378ZM75.0649 37.9289L73.3787 32.8507C73.2004 32.3319 72.8661 31.1102 72.373 29.1871H72.3131C72.1167 30.0142 71.8005 31.2359 71.3658 32.8507L69.7097 37.9289H75.0649Z" fill="white"/>
<path d="M97.4076 38.8537C97.4076 41.2387 96.7466 43.1238 95.4247 44.5077C94.2406 45.7396 92.7703 46.3548 91.0152 46.3548C89.1207 46.3548 87.7598 45.6913 86.9309 44.3645H86.871V51.7515H83.6755V36.6311C83.6755 35.1317 83.6351 33.5929 83.5571 32.0147H86.3674L86.5458 34.2374H86.6057C87.6714 32.5627 89.2886 31.7268 91.4588 31.7268C93.1555 31.7268 94.5719 32.38 95.705 33.6879C96.8411 34.9973 97.4076 36.7187 97.4076 38.8537ZM94.1522 38.9677C94.1522 37.6028 93.8375 36.4776 93.205 35.592C92.514 34.6685 91.5862 34.2067 90.4232 34.2067C89.6348 34.2067 88.9184 34.4639 88.2784 34.971C87.6369 35.4824 87.2172 36.1503 87.0209 36.9774C86.9219 37.3632 86.8725 37.6788 86.8725 37.9273V40.2654C86.8725 41.2854 87.1932 42.1461 87.8347 42.849C88.4762 43.552 89.3096 43.9027 90.3347 43.9027C91.5383 43.9027 92.475 43.4497 93.145 42.5465C93.8165 41.642 94.1522 40.4495 94.1522 38.9677Z" fill="white"/>
<path d="M113.95 38.8537C113.95 41.2387 113.289 43.1238 111.966 44.5077C110.783 45.7396 109.313 46.3548 107.558 46.3548C105.663 46.3548 104.302 45.6913 103.475 44.3645H103.415V51.7515H100.219V36.6311C100.219 35.1317 100.179 33.5929 100.101 32.0147H102.911L103.09 34.2374H103.15C104.214 32.5627 105.831 31.7268 108.003 31.7268C109.698 31.7268 111.114 32.38 112.25 33.6879C113.382 34.9973 113.95 36.7187 113.95 38.8537ZM110.695 38.9677C110.695 37.6028 110.378 36.4776 109.746 35.592C109.055 34.6685 108.13 34.2067 106.966 34.2067C106.176 34.2067 105.461 34.4639 104.819 34.971C104.178 35.4824 103.76 36.1503 103.563 36.9774C103.466 37.3632 103.415 37.6788 103.415 37.9273V40.2654C103.415 41.2854 103.736 42.1461 104.374 42.849C105.016 43.5505 105.849 43.9027 106.877 43.9027C108.081 43.9027 109.017 43.4497 109.687 42.5465C110.359 41.642 110.695 40.4495 110.695 38.9677Z" fill="white"/>
<path d="M132.445 40.5842C132.445 42.2384 131.856 43.5843 130.673 44.6233C129.374 45.7587 127.565 46.3257 125.24 46.3257C123.094 46.3257 121.373 45.9224 120.071 45.1143L120.811 42.5175C122.214 43.3446 123.753 43.7596 125.431 43.7596C126.634 43.7596 127.571 43.4937 128.244 42.9647C128.914 42.4357 129.248 41.7255 129.248 40.8399C129.248 40.0508 128.972 39.3859 128.419 38.8466C127.869 38.3074 126.95 37.8061 125.667 37.3429C122.175 36.073 120.431 34.2127 120.431 31.7664C120.431 30.1677 121.042 28.8569 122.267 27.8369C123.487 26.8154 125.114 26.3054 127.15 26.3054C128.965 26.3054 130.473 26.6138 131.676 27.229L130.877 29.7688C129.753 29.1726 128.482 28.8745 127.06 28.8745C125.936 28.8745 125.057 29.1448 124.428 29.6826C123.896 30.1634 123.629 30.7493 123.629 31.4435C123.629 32.2121 123.933 32.8478 124.545 33.3476C125.077 33.8094 126.044 34.3092 127.446 34.8484C129.163 35.5221 130.423 36.3097 131.234 37.2128C132.042 38.113 132.445 39.2397 132.445 40.5842Z" fill="white"/>
<path d="M143.01 34.3529H139.488V41.1613C139.488 42.893 140.109 43.7581 141.353 43.7581C141.924 43.7581 142.397 43.7099 142.772 43.6134L142.861 45.9794C142.231 46.2088 141.402 46.3242 140.376 46.3242C139.114 46.3242 138.127 45.9487 137.415 45.199C136.707 44.4479 136.35 43.1882 136.35 41.4185V34.35H134.251V32.0119H136.35V29.4443L139.488 28.5208V32.0119H143.01V34.3529Z" fill="white"/>
<path d="M158.902 38.9107C158.902 41.0662 158.27 42.8359 157.008 44.2198C155.684 45.6446 153.928 46.3548 151.738 46.3548C149.628 46.3548 147.947 45.6724 146.694 44.3075C145.441 42.9426 144.815 41.2197 144.815 39.1431C144.815 36.9701 145.459 35.1902 146.753 33.8063C148.043 32.4209 149.785 31.7283 151.975 31.7283C154.085 31.7283 155.783 32.4107 157.065 33.7771C158.291 35.1025 158.902 36.8137 158.902 38.9107ZM155.587 39.0116C155.587 37.7183 155.304 36.6091 154.73 35.6841C154.06 34.5647 153.102 34.0065 151.861 34.0065C150.576 34.0065 149.601 34.5662 148.931 35.6841C148.357 36.6106 148.073 37.7373 148.073 39.07C148.073 40.3633 148.357 41.4725 148.931 42.396C149.622 43.5154 150.587 44.0736 151.832 44.0736C153.052 44.0736 154.01 43.5037 154.701 42.3668C155.29 41.4242 155.587 40.3034 155.587 39.0116Z" fill="white"/>
<path d="M169.289 34.7547C168.972 34.6977 168.635 34.6685 168.281 34.6685C167.157 34.6685 166.288 35.082 165.677 35.9106C165.144 36.6413 164.878 37.5648 164.878 38.6799V46.0377H161.684L161.714 36.4309C161.714 34.8146 161.673 33.343 161.594 32.0162H164.377L164.494 34.6992H164.582C164.92 33.7771 165.452 33.0347 166.18 32.4779C166.892 31.9767 167.661 31.7268 168.49 31.7268C168.785 31.7268 169.052 31.7473 169.289 31.7838V34.7547Z" fill="white"/>
<path d="M183.58 38.3629C183.58 38.9212 183.543 39.3917 183.463 39.776H173.877C173.914 41.1614 174.377 42.2208 175.268 42.9515C176.076 43.6047 177.12 43.9321 178.403 43.9321C179.823 43.9321 181.118 43.7114 182.282 43.2686L182.783 45.4314C181.422 46.0101 179.815 46.298 177.961 46.298C175.731 46.298 173.98 45.6579 172.706 44.3792C171.435 43.1006 170.798 41.3835 170.798 39.2295C170.798 37.1149 171.39 35.354 172.576 33.9497C173.817 32.4503 175.494 31.7007 177.604 31.7007C179.677 31.7007 181.247 32.4503 182.312 33.9497C183.156 35.1407 183.58 36.6137 183.58 38.3629ZM180.533 37.5548C180.554 36.6312 180.346 35.8333 179.913 35.1597C179.36 34.2931 178.51 33.8605 177.366 33.8605C176.321 33.8605 175.472 34.2829 174.823 35.1304C174.291 35.8041 173.974 36.6122 173.877 37.5533H180.533V37.5548Z" fill="white"/>
<path d="M72.3976 14.0879C72.45 14.1069 72.5189 14.1331 72.6046 14.1664C72.6902 14.2045 72.8424 14.2901 73.0612 14.4233C73.2801 14.5517 73.4727 14.7016 73.6392 14.8728C73.8057 15.0441 73.9555 15.2843 74.0887 15.5935C74.2267 15.8979 74.2957 16.2238 74.2957 16.5711C74.2957 17.4178 73.9365 18.1408 73.2182 18.7402C72.5047 19.3396 71.5485 19.6393 70.3498 19.6393C69.8646 19.6393 69.396 19.5822 68.9441 19.468C68.4922 19.3491 68.1188 19.2112 67.8238 19.0542C67.5337 18.8924 67.2744 18.7283 67.0461 18.5618C66.8225 18.3953 66.6584 18.255 66.5537 18.1408L66.4039 17.9625L67.4314 16.9421C67.4599 16.9706 67.5027 17.0135 67.5598 17.0705C67.6217 17.1276 67.7453 17.2275 67.9309 17.3702C68.1211 17.5129 68.3209 17.6414 68.5302 17.7555C68.7395 17.8649 69.0107 17.9648 69.3437 18.0552C69.6767 18.1408 70.012 18.1837 70.3498 18.1837C71.0823 18.1837 71.6556 18.0195 72.0694 17.6913C72.4833 17.3631 72.6902 16.9659 72.6902 16.4997C72.6902 16.0335 72.4833 15.6387 72.0694 15.3152C71.6556 14.987 71.0823 14.8229 70.3498 14.8229H69.1082V13.3601H70.3498C70.9444 13.3601 71.4106 13.2245 71.7483 12.9534C72.0861 12.6775 72.2549 12.3445 72.2549 11.9544C72.2549 11.5739 72.0861 11.2504 71.7483 10.984C71.4106 10.7176 70.9444 10.5844 70.3498 10.5844C69.9216 10.5844 69.5007 10.6772 69.0868 10.8627C68.6729 11.0482 68.3637 11.2266 68.1592 11.3979L67.8666 11.6761L66.8463 10.6558C66.8748 10.6177 66.9224 10.5654 66.989 10.4988C67.0603 10.4274 67.2078 10.3014 67.4314 10.1206C67.655 9.93985 67.8904 9.78525 68.1378 9.65681C68.3851 9.52362 68.711 9.40232 69.1153 9.29291C69.5197 9.17874 69.9312 9.12166 70.3498 9.12166C71.4391 9.12166 72.2954 9.38091 72.9185 9.89942C73.5464 10.4132 73.8604 11.0554 73.8604 11.826C73.8604 12.1399 73.8081 12.4325 73.7034 12.7036C73.6035 12.9748 73.4822 13.1912 73.3395 13.353C73.2016 13.5147 73.0612 13.655 72.9185 13.774C72.7758 13.8881 72.6521 13.969 72.5475 14.0166L72.3976 14.0879ZM82.0445 19.4966H80.5817V18.7688C80.5627 18.7878 80.5294 18.8187 80.4818 18.8615C80.439 18.9043 80.3486 18.9757 80.2107 19.0756C80.0775 19.1707 79.9324 19.2587 79.7754 19.3396C79.6184 19.4157 79.421 19.4847 79.1832 19.5465C78.9453 19.6084 78.7051 19.6393 78.4625 19.6393C77.7489 19.6393 77.1567 19.4324 76.6858 19.0185C76.2148 18.6047 75.9793 18.1313 75.9793 17.5986C75.9793 17.023 76.1601 16.5401 76.5216 16.1501C76.8879 15.76 77.3874 15.5126 78.0201 15.408L80.5817 14.9656C80.5817 14.5945 80.4438 14.283 80.1678 14.0308C79.8967 13.7787 79.5471 13.6527 79.1189 13.6527C78.7479 13.6527 78.4102 13.7311 78.1057 13.8881C77.806 14.0404 77.5991 14.195 77.4849 14.3519L77.2923 14.6017L76.3433 13.6527C76.3718 13.6146 76.4099 13.567 76.4574 13.51C76.5097 13.4481 76.6215 13.3435 76.7928 13.196C76.9688 13.0438 77.1543 12.9082 77.3493 12.7893C77.5444 12.6703 77.8013 12.5657 78.12 12.4753C78.4434 12.3802 78.7764 12.3326 79.1189 12.3326C79.9752 12.3326 80.6768 12.5871 81.2239 13.0961C81.7709 13.6003 82.0445 14.2235 82.0445 14.9656V19.4966ZM78.6837 18.3264C79.2783 18.3264 79.7421 18.1504 80.0751 17.7983C80.4128 17.4416 80.5817 16.935 80.5817 16.2785V16.1358L78.3126 16.4997C78.051 16.5473 77.8393 16.6543 77.6776 16.8208C77.5158 16.9873 77.435 17.1966 77.435 17.4487C77.435 17.6818 77.5468 17.8864 77.7703 18.0624C77.9987 18.2384 78.3031 18.3264 78.6837 18.3264ZM89.2795 12.4824V13.7954H85.8474V19.4966H84.3846V12.4824H89.2795ZM94.4667 19.6393C94.2051 19.6393 93.9506 19.6084 93.7032 19.5465C93.4558 19.4847 93.2442 19.4086 93.0681 19.3182C92.8921 19.2231 92.7352 19.1279 92.5972 19.0328C92.464 18.9329 92.3665 18.8544 92.3047 18.7973L92.2048 18.6903V22.5648H90.742V12.4824H92.2048V13.2888C92.2714 13.2222 92.3641 13.1342 92.483 13.0247C92.6067 12.9153 92.866 12.7726 93.2608 12.5966C93.6556 12.4206 94.0576 12.3326 94.4667 12.3326C95.3943 12.3326 96.1982 12.6894 96.8785 13.4029C97.5635 14.1117 97.906 14.9727 97.906 15.9859C97.906 16.9992 97.5635 17.8626 96.8785 18.5761C96.1982 19.2849 95.3943 19.6393 94.4667 19.6393ZM95.801 14.3377C95.3729 13.881 94.8805 13.6527 94.324 13.6527C93.7674 13.6527 93.2751 13.881 92.8469 14.3377C92.4188 14.7943 92.2048 15.3461 92.2048 15.9931C92.2048 16.6353 92.4188 17.1847 92.8469 17.6414C93.2751 18.098 93.7674 18.3264 94.324 18.3264C94.8805 18.3264 95.3729 18.098 95.801 17.6414C96.2291 17.1847 96.4432 16.6353 96.4432 15.9931C96.4432 15.3461 96.2291 14.7943 95.801 14.3377ZM101.481 20.2244L101.773 19.4966L98.9189 12.4824H100.453L102.501 17.5986L104.549 12.4824H106.083L102.936 20.2244C102.575 21.0902 102.215 21.6967 101.859 22.0439C101.507 22.3912 101.064 22.5648 100.532 22.5648C100.336 22.5648 100.153 22.5529 99.9821 22.5291C99.8108 22.5054 99.6848 22.4792 99.6039 22.4507L99.504 22.4221V21.1021C99.7466 21.1972 99.9916 21.2471 100.239 21.2519C100.796 21.2471 101.209 20.9046 101.481 20.2244ZM112.212 14.3091C112.212 14.6326 112.122 14.9156 111.941 15.1582C111.765 15.4008 111.584 15.5602 111.399 15.6363L111.12 15.7719C111.158 15.7814 111.208 15.798 111.27 15.8218C111.337 15.8456 111.446 15.9027 111.598 15.9931C111.755 16.0787 111.893 16.1834 112.012 16.307C112.136 16.426 112.248 16.5925 112.348 16.8065C112.452 17.0206 112.505 17.2608 112.505 17.5272C112.505 18.1123 112.243 18.6118 111.72 19.0256C111.201 19.4347 110.49 19.6393 109.586 19.6393C109.244 19.6393 108.913 19.5965 108.594 19.5109C108.28 19.4252 108.019 19.323 107.809 19.204C107.6 19.0851 107.417 18.9662 107.26 18.8473C107.103 18.7236 106.986 18.6189 106.91 18.5333L106.81 18.3977L107.759 17.4487C107.817 17.5153 107.893 17.5986 107.988 17.6985C108.088 17.7983 108.297 17.9292 108.616 18.0909C108.939 18.2479 109.263 18.3264 109.586 18.3264C110.071 18.3264 110.435 18.236 110.678 18.0552C110.925 17.8745 111.049 17.6485 111.049 17.3774C111.049 17.1062 110.925 16.8803 110.678 16.6995C110.435 16.5187 110.071 16.4283 109.586 16.4283H108.78V15.2581H109.586C109.967 15.2581 110.257 15.1844 110.457 15.0369C110.656 14.8847 110.756 14.6921 110.756 14.459C110.756 14.2211 110.656 14.0285 110.457 13.881C110.257 13.7288 109.967 13.6527 109.586 13.6527C109.305 13.6527 109.03 13.7074 108.758 13.8168C108.492 13.9214 108.295 14.0308 108.166 14.145L107.981 14.3091L107.024 13.3601C107.091 13.284 107.189 13.1889 107.317 13.0747C107.445 12.9605 107.731 12.8083 108.173 12.618C108.616 12.4277 109.087 12.3326 109.586 12.3326C110.395 12.3326 111.035 12.5276 111.506 12.9177C111.976 13.3078 112.212 13.7716 112.212 14.3091ZM119.525 12.4824H120.838V19.4966H119.376V14.8942L115.722 19.4966H114.409V12.4824H115.872V17.0848L119.525 12.4824ZM122.451 13.7954V12.4824H128.73V13.7954H126.318V19.4966H124.863V13.7954H122.451ZM136.835 16.4997H131.355C131.432 16.9944 131.674 17.4225 132.083 17.7841C132.497 18.1456 132.987 18.3264 133.553 18.3264C133.962 18.3264 134.343 18.2336 134.695 18.0481C135.052 17.8626 135.304 17.6818 135.451 17.5058L135.672 17.2346L136.621 18.1837C136.593 18.2217 136.548 18.2764 136.486 18.3478C136.429 18.4144 136.303 18.5309 136.108 18.6974C135.913 18.8591 135.706 19.0042 135.487 19.1327C135.268 19.2564 134.983 19.3729 134.631 19.4823C134.283 19.587 133.924 19.6393 133.553 19.6393C132.559 19.6393 131.7 19.2754 130.977 18.5476C130.259 17.815 129.9 16.9373 129.9 15.9146C129.9 14.9299 130.249 14.0879 130.949 13.3886C131.653 12.6846 132.495 12.3326 133.475 12.3326C134.459 12.3326 135.278 12.6608 135.929 13.3173C136.586 13.969 136.914 14.7872 136.914 15.7719L136.835 16.4997ZM133.475 13.5813C132.947 13.5813 132.502 13.7383 132.14 14.0522C131.784 14.3614 131.543 14.7634 131.42 15.2581H135.48C135.394 14.7634 135.173 14.3614 134.816 14.0522C134.459 13.7383 134.012 13.5813 133.475 13.5813ZM142.022 12.4824H145.383C146.054 12.4824 146.587 12.6561 146.982 13.0033C147.376 13.3458 147.574 13.7811 147.574 14.3091C147.574 14.6088 147.507 14.8823 147.374 15.1297C147.246 15.3723 147.112 15.5412 146.974 15.6363L146.775 15.7719C146.803 15.7814 146.844 15.798 146.896 15.8218C146.948 15.8456 147.043 15.9075 147.181 16.0074C147.319 16.1025 147.438 16.2095 147.538 16.3284C147.643 16.4426 147.735 16.5996 147.816 16.7994C147.902 16.9992 147.945 17.2156 147.945 17.4487C147.945 18.0528 147.728 18.5452 147.295 18.9257C146.867 19.3063 146.28 19.4966 145.533 19.4966H142.022V12.4824ZM145.533 16.357H143.485V18.255H145.533C145.823 18.255 146.054 18.1694 146.225 17.9981C146.396 17.8269 146.482 17.5962 146.482 17.306C146.482 17.0444 146.394 16.8208 146.218 16.6353C146.042 16.4498 145.814 16.357 145.533 16.357ZM145.918 14.9941C146.052 14.8609 146.118 14.6825 146.118 14.459C146.118 14.2306 146.052 14.0522 145.918 13.9238C145.785 13.7906 145.607 13.724 145.383 13.724H143.485V15.1868H145.383C145.607 15.1868 145.785 15.1226 145.918 14.9941Z" fill="white"/>
</svg>
