<svg width="203" height="59" viewBox="0 0 203 59" fill="none" xmlns="http://www.w3.org/2000/svg">
<path d="M195.408 58.4536H8.3143C4.20012 58.4536 0.830566 55.1638 0.830566 51.1469V7.30681C0.830566 3.28996 4.20012 0.000129344 8.3143 0.000129344H195.408C199.522 0.000129344 202.891 3.28996 202.891 7.30681V51.1469C202.891 55.1638 199.522 58.4536 195.408 58.4536Z" fill="black"/>
<path d="M195.408 1.17102C198.873 1.17102 201.692 3.92382 201.692 7.30681V51.1469C201.692 54.5299 198.873 57.2827 195.408 57.2827H8.3143C4.84933 57.2827 2.02983 54.5299 2.02983 51.1469V7.30681C2.02983 3.92382 4.84933 1.17102 8.3143 1.17102H195.408ZM195.408 0.000129344H8.3143C4.20012 0.000129344 0.830566 3.28996 0.830566 7.30681V51.1469C0.830566 55.1638 4.20012 58.4536 8.3143 58.4536H195.408C199.522 58.4536 202.891 55.1638 202.891 51.1469V7.30681C202.891 3.28996 199.522 0.000129344 195.408 0.000129344Z" fill="#A6A6A6"/>
<path d="M102.812 31.7879C99.2962 31.7879 96.4243 34.4 96.4243 38.004C96.4243 41.5788 99.2962 44.2183 102.812 44.2183C106.335 44.2183 109.207 41.5788 109.207 38.004C109.207 34.4 106.335 31.7879 102.812 31.7879ZM102.812 41.7706C100.883 41.7706 99.2232 40.2161 99.2232 38.004C99.2232 35.7627 100.883 34.2356 102.812 34.2356C104.741 34.2356 106.408 35.7627 106.408 38.004C106.408 40.2161 104.741 41.7706 102.812 41.7706ZM88.8751 31.7879C85.3521 31.7879 82.4877 34.4 82.4877 38.004C82.4877 41.5788 85.3521 44.2183 88.8751 44.2183C92.3962 44.2183 95.2625 41.5788 95.2625 38.004C95.2625 34.4 92.3962 31.7879 88.8751 31.7879ZM88.8751 41.7706C86.9443 41.7706 85.2792 40.2161 85.2792 38.004C85.2792 35.7627 86.9443 34.2356 88.8751 34.2356C90.804 34.2356 92.4635 35.7627 92.4635 38.004C92.4635 40.2161 90.804 41.7706 88.8751 41.7706ZM72.2911 33.6931V36.3344H78.7515C78.5625 37.8104 78.0574 38.8954 77.2828 39.6517C76.3398 40.565 74.8712 41.5788 72.2911 41.5788C68.3154 41.5788 65.2022 38.4461 65.2022 34.5644C65.2022 30.6827 68.3154 27.55 72.2911 27.55C74.4408 27.55 76.0049 28.3701 77.1593 29.4333L79.0658 27.5719C77.4512 26.0667 75.3033 24.9104 72.2911 24.9104C66.8392 24.9104 62.2573 29.2415 62.2573 34.5644C62.2573 39.8873 66.8392 44.2183 72.2911 44.2183C75.2379 44.2183 77.4512 43.2758 79.1911 41.5076C80.9741 39.7667 81.5298 37.319 81.5298 35.3426C81.5298 34.7288 81.4774 34.1643 81.3839 33.6931H72.2911ZM140.105 35.7408C139.579 34.3507 137.957 31.7879 134.653 31.7879C131.379 31.7879 128.653 34.3068 128.653 38.004C128.653 41.4856 131.351 44.2183 134.967 44.2183C137.892 44.2183 139.579 42.4775 140.273 41.4637L138.103 40.0517C137.379 41.0856 136.393 41.7706 134.967 41.7706C133.551 41.7706 132.535 41.1368 131.884 39.8873L140.399 36.4477L140.105 35.7408ZM131.424 37.8104C131.351 35.4138 133.33 34.1863 134.749 34.1863C135.86 34.1863 136.803 34.7288 137.117 35.5051L131.424 37.8104ZM124.503 43.8402H127.302V25.5735H124.503V43.8402ZM119.919 33.1725H119.826C119.197 32.4455 117.998 31.7879 116.479 31.7879C113.291 31.7879 110.376 34.5205 110.376 38.0241C110.376 41.5076 113.291 44.2183 116.479 44.2183C117.998 44.2183 119.197 43.5553 119.826 42.8063H119.919V43.6977C119.919 46.0742 118.619 47.3511 116.522 47.3511C114.812 47.3511 113.751 46.1455 113.313 45.1317L110.879 46.1236C111.581 47.7712 113.439 49.7988 116.522 49.7988C119.803 49.7988 122.572 47.9137 122.572 43.3269V32.166H119.919V33.1725ZM116.718 41.7706C114.789 41.7706 113.175 40.1942 113.175 38.0241C113.175 35.8339 114.789 34.2356 116.718 34.2356C118.619 34.2356 120.118 35.8339 120.118 38.0241C120.118 40.1942 118.619 41.7706 116.718 41.7706ZM153.209 25.5735H146.515V43.8402H149.306V36.919H153.209C156.309 36.919 159.349 34.7288 159.349 31.2453C159.349 27.7637 156.302 25.5735 153.209 25.5735ZM153.282 34.3781H149.306V28.1144H153.282C155.366 28.1144 156.556 29.8041 156.556 31.2453C156.556 32.6592 155.366 34.3781 153.282 34.3781ZM170.538 31.7531C168.521 31.7531 166.423 32.6226 165.561 34.5498L168.038 35.5636C168.571 34.5498 169.552 34.221 170.588 34.221C172.036 34.221 173.505 35.0704 173.527 36.5701V36.7619C173.022 36.4769 171.941 36.055 170.611 36.055C167.943 36.055 165.224 37.4889 165.224 40.165C165.224 42.6127 167.409 44.1891 169.866 44.1891C171.744 44.1891 172.781 43.3616 173.432 42.399H173.527V43.811H176.223V36.8039C176.223 33.5652 173.746 31.7531 170.538 31.7531ZM170.201 41.7633C169.288 41.7633 168.016 41.3212 168.016 40.2161C168.016 38.8023 169.602 38.2597 170.975 38.2597C172.205 38.2597 172.781 38.5246 173.527 38.8735C173.308 40.565 171.817 41.7633 170.201 41.7633ZM186.046 32.1532L182.837 40.0718H182.742L179.425 32.1532H176.414L181.398 43.2192L178.555 49.3769H181.471L189.152 32.1532H186.046ZM160.884 43.8402H163.682V25.5735H160.884V43.8402Z" fill="white"/>
<path d="M16.449 11.0168C16.0093 11.4662 15.7549 12.1658 15.7549 13.0718V45.3893C15.7549 46.2954 16.0093 46.995 16.449 47.4443L16.5575 47.543L35.1059 29.4407V29.0132L16.5575 10.9109L16.449 11.0168Z" fill="url(#paint0_linear)"/>
<path d="M41.2819 35.4778L35.106 29.4406V29.0132L41.2894 22.976L41.4278 23.0546L48.7507 27.1226C50.8405 28.277 50.8405 30.1768 48.7507 31.3385L41.4278 35.3992L41.2819 35.4778Z" fill="url(#paint1_linear)"/>
<path d="M41.4281 35.3994L35.1062 29.2271L16.4492 47.4445C17.1433 48.1569 18.2752 48.2428 19.5625 47.5304L41.4281 35.3994Z" fill="url(#paint2_linear)"/>
<path d="M41.4281 23.0545L19.5625 10.9236C18.2752 10.2185 17.1433 10.3043 16.4492 11.0167L35.1062 29.2268L41.4281 23.0545Z" fill="url(#paint3_linear)"/>
<path d="M63.975 18.0338H64.5601C64.6077 17.9958 64.6695 17.9315 64.7457 17.8412C64.8265 17.746 64.9669 17.5343 65.1667 17.2061C65.3664 16.8731 65.5425 16.5092 65.6947 16.1144C65.8517 15.7196 65.9944 15.182 66.1228 14.5018C66.2512 13.8168 66.3155 13.0937 66.3155 12.3326V9.26437H72.9657V18.0338H74.2072V21.6872H72.5946V19.4966H65.5805V21.6872H63.975V18.0338ZM67.9209 12.3326C67.9209 13.0937 67.8591 13.812 67.7354 14.4875C67.6165 15.1582 67.4714 15.7005 67.3001 16.1144C67.1289 16.5282 66.9576 16.8898 66.7864 17.199C66.6151 17.5034 66.4677 17.7199 66.344 17.8483L66.1656 18.0338H71.3531V10.7271H67.9209V12.3326ZM80.6503 17.6485C81.0831 17.1966 81.2996 16.6448 81.2996 15.9931C81.2996 15.3366 81.0831 14.7824 80.6503 14.3305C80.2174 13.8786 79.7036 13.6527 79.109 13.6527C78.5144 13.6527 77.9983 13.8786 77.5606 14.3305C77.1277 14.7824 76.9113 15.3366 76.9113 15.9931C76.9113 16.6448 77.1277 17.1966 77.5606 17.6485C77.9983 18.1004 78.5144 18.3264 79.109 18.3264C79.7036 18.3264 80.2174 18.1004 80.6503 17.6485ZM76.5403 18.5547C75.8172 17.8269 75.4557 16.973 75.4557 15.9931C75.4557 15.0084 75.8172 14.1521 76.5403 13.4243C77.2681 12.6965 78.1243 12.3326 79.109 12.3326C80.0937 12.3326 80.9476 12.6965 81.6706 13.4243C82.3984 14.1521 82.7624 15.0084 82.7624 15.9931C82.7624 16.973 82.3984 17.8269 81.6706 18.5547C80.9476 19.2778 80.0937 19.6393 79.109 19.6393C78.1243 19.6393 77.2681 19.2778 76.5403 18.5547ZM85.3094 18.5547C84.5864 17.8269 84.2248 16.973 84.2248 15.9931C84.2248 15.0084 84.5864 14.1521 85.3094 13.4243C86.0372 12.6965 86.8935 12.3326 87.8782 12.3326C88.4252 12.3326 88.9342 12.4515 89.4052 12.6894C89.8761 12.9225 90.2138 13.1556 90.4184 13.3886L90.7252 13.724L89.7762 14.673C89.7286 14.5969 89.6549 14.5042 89.555 14.3947C89.4599 14.2806 89.2482 14.1284 88.9199 13.9381C88.5965 13.7478 88.2492 13.6527 87.8782 13.6527C87.2836 13.6527 86.7674 13.8786 86.3298 14.3305C85.8969 14.7824 85.6805 15.3366 85.6805 15.9931C85.6805 16.6448 85.8969 17.1966 86.3298 17.6485C86.7674 18.1004 87.2836 18.3264 87.8782 18.3264C88.2492 18.3264 88.5965 18.2336 88.9199 18.0481C89.2482 17.8626 89.4836 17.6818 89.6264 17.5058L89.8476 17.2346L90.7966 18.1837C90.768 18.2217 90.7252 18.2764 90.6681 18.3478C90.611 18.4144 90.4874 18.5309 90.2971 18.6974C90.1068 18.8591 89.907 19.0042 89.6977 19.1327C89.4884 19.2564 89.2173 19.3729 88.8843 19.4823C88.5513 19.587 88.2159 19.6393 87.8782 19.6393C86.8935 19.6393 86.0372 19.2778 85.3094 18.5547ZM91.8167 13.7954V12.4824H98.0958V13.7954H95.6841V19.4966H94.2284V13.7954H91.8167ZM101.385 20.2244L101.678 19.4966L98.8234 12.4824H100.357L102.405 17.5986L104.453 12.4824H105.987L102.841 20.2244C102.479 21.0902 102.12 21.6967 101.763 22.0439C101.411 22.3912 100.969 22.5648 100.436 22.5648C100.241 22.5648 100.058 22.5529 99.8865 22.5291C99.7153 22.5054 99.5892 22.4792 99.5084 22.4507L99.4085 22.4221V21.1021C99.6511 21.1972 99.8961 21.2471 100.143 21.2519C100.7 21.2471 101.114 20.9046 101.385 20.2244ZM108.905 13.7954V19.4966H107.443V12.4824H113.8V19.4966H112.338V13.7954H108.905ZM117.603 16.5711V19.4966H116.14V12.4824H117.603V15.2581H121.035V12.4824H122.498V19.4966H121.035V16.5711H117.603ZM129.598 17.6485C130.031 17.1966 130.247 16.6448 130.247 15.9931C130.247 15.3366 130.031 14.7824 129.598 14.3305C129.165 13.8786 128.651 13.6527 128.056 13.6527C127.462 13.6527 126.946 13.8786 126.508 14.3305C126.075 14.7824 125.859 15.3366 125.859 15.9931C125.859 16.6448 126.075 17.1966 126.508 17.6485C126.946 18.1004 127.462 18.3264 128.056 18.3264C128.651 18.3264 129.165 18.1004 129.598 17.6485ZM125.488 18.5547C124.765 17.8269 124.403 16.973 124.403 15.9931C124.403 15.0084 124.765 14.1521 125.488 13.4243C126.215 12.6965 127.072 12.3326 128.056 12.3326C129.041 12.3326 129.895 12.6965 130.618 13.4243C131.346 14.1521 131.71 15.0084 131.71 15.9931C131.71 16.973 131.346 17.8269 130.618 18.5547C129.895 19.2778 129.041 19.6393 128.056 19.6393C127.072 19.6393 126.215 19.2778 125.488 18.5547ZM136.825 12.4824H140.186C140.857 12.4824 141.39 12.6561 141.784 13.0033C142.179 13.3458 142.377 13.7811 142.377 14.3091C142.377 14.6088 142.31 14.8823 142.177 15.1297C142.048 15.3723 141.915 15.5412 141.777 15.6363L141.577 15.7719C141.606 15.7814 141.646 15.798 141.699 15.8218C141.751 15.8456 141.846 15.9075 141.984 16.0074C142.122 16.1025 142.241 16.2095 142.341 16.3284C142.446 16.4426 142.538 16.5996 142.619 16.7994C142.705 16.9992 142.748 17.2156 142.748 17.4487C142.748 18.0528 142.531 18.5452 142.098 18.9257C141.67 19.3063 141.083 19.4966 140.336 19.4966H136.825V12.4824ZM140.336 16.357H138.288V18.255H140.336C140.626 18.255 140.857 18.1694 141.028 17.9981C141.199 17.8269 141.285 17.5962 141.285 17.306C141.285 17.0444 141.197 16.8208 141.021 16.6353C140.845 16.4498 140.617 16.357 140.336 16.357ZM140.721 14.9941C140.854 14.8609 140.921 14.6825 140.921 14.459C140.921 14.2306 140.854 14.0522 140.721 13.9238C140.588 13.7906 140.41 13.724 140.186 13.724H138.288V15.1868H140.186C140.41 15.1868 140.588 15.1226 140.721 14.9941Z" fill="white"/>
<defs>
<linearGradient id="paint0_linear" x1="33.4591" y1="45.7259" x2="8.94135" y2="20.6141" gradientUnits="userSpaceOnUse">
<stop stop-color="#00A0FF"/>
<stop offset="0.0066" stop-color="#00A1FF"/>
<stop offset="0.2601" stop-color="#00BEFF"/>
<stop offset="0.5122" stop-color="#00D2FF"/>
<stop offset="0.7604" stop-color="#00DFFF"/>
<stop offset="1" stop-color="#00E3FF"/>
</linearGradient>
<linearGradient id="paint1_linear" x1="51.472" y1="29.2249" x2="15.2553" y2="29.2249" gradientUnits="userSpaceOnUse">
<stop stop-color="#FFE000"/>
<stop offset="0.4087" stop-color="#FFBD00"/>
<stop offset="0.7754" stop-color="#FFA500"/>
<stop offset="1" stop-color="#FF9C00"/>
</linearGradient>
<linearGradient id="paint2_linear" x1="37.9904" y1="25.8717" x2="4.74238" y2="-8.18192" gradientUnits="userSpaceOnUse">
<stop stop-color="#FF3A44"/>
<stop offset="1" stop-color="#C31162"/>
</linearGradient>
<linearGradient id="paint3_linear" x1="11.7529" y1="58.1961" x2="26.5996" y2="42.9897" gradientUnits="userSpaceOnUse">
<stop stop-color="#32A071"/>
<stop offset="0.0685" stop-color="#2DA771"/>
<stop offset="0.4762" stop-color="#15CF74"/>
<stop offset="0.8009" stop-color="#06E775"/>
<stop offset="1" stop-color="#00F076"/>
</linearGradient>
</defs>
</svg>
